<svg width="15" height="18" viewBox="0 0 15 18" fill="none" xmlns="http://www.w3.org/2000/svg">
<path d="M0.5 16.2376V2.27402C0.5 1.81276 0.652801 1.44426 0.958401 1.16851C1.26275 0.892758 1.61845 0.754883 2.0255 0.754883C2.15325 0.754883 2.28663 0.77243 2.42566 0.807526C2.56343 0.841368 2.69556 0.893385 2.82206 0.963576L13.7992 7.98204C14.0322 8.14499 14.2076 8.33175 14.3253 8.54232C14.4418 8.75164 14.5 8.98916 14.5 9.25488C14.5 9.52061 14.4418 9.75813 14.3253 9.96745C14.2088 10.1768 14.0335 10.3635 13.7992 10.5277L2.82206 17.5462C2.69556 17.6151 2.56218 17.6671 2.4219 17.7022C2.28162 17.7373 2.14824 17.7549 2.02174 17.7549C1.61344 17.7549 1.25774 17.617 0.954642 17.3413C0.651547 17.0655 0.5 16.6976 0.5 16.2376Z" fill="#FDFFFF"/>
</svg>
