<svg width="71" height="50" viewBox="0 0 71 50" fill="none" xmlns="http://www.w3.org/2000/svg">
<rect width="46" height="48" transform="translate(0 0.754883)" fill="#707070"/>
<path d="M36.872 14.6749H29.448C29.304 15.6029 29.096 16.4029 28.792 17.1549C28.376 18.2109 27.928 18.9149 27.032 19.9389C26.744 19.5709 26.52 19.3469 26.152 19.0909C27.144 18.0989 27.656 17.2509 28.04 15.9549C28.488 14.4349 28.664 12.4669 28.664 8.91488C28.664 7.44288 28.648 6.80288 28.6 6.19488C29.176 6.25888 29.592 6.27488 30.28 6.27488H36.296C37 6.27488 37.416 6.25888 37.96 6.19488C37.912 6.62688 37.896 7.02688 37.896 7.84288V18.3709C37.896 18.9469 37.752 19.2829 37.448 19.4909C37.192 19.6509 36.888 19.6989 36.168 19.6989C35.64 19.6989 34.968 19.6829 34.248 19.6349C34.2 19.2189 34.136 18.9629 33.992 18.5469C34.792 18.6589 35.512 18.7069 36.28 18.7069C36.744 18.7069 36.872 18.6109 36.872 18.2109V14.6749ZM29.56 13.7149H36.872V10.8669H29.736C29.72 11.7469 29.688 12.3549 29.56 13.7149ZM29.736 9.90688H36.872V7.25088H29.752L29.736 9.52288V9.90688ZM27.096 42.3549V39.9389C27.096 39.6029 27.08 39.2829 27.064 38.9309C26.744 39.1229 26.552 39.2349 26.008 39.5069C25.864 39.1549 25.72 38.9309 25.464 38.6909C26.824 38.1149 27.976 37.4109 28.92 36.5469C28.424 36.0989 28.104 35.7309 27.688 35.1709C27.288 35.6509 26.84 36.0989 26.28 36.5629C26.088 36.2749 25.896 36.0669 25.656 35.8749C26.712 35.0909 27.304 34.4189 27.944 33.3469C28.248 32.8509 28.392 32.5149 28.488 32.1309L29.416 32.4029C29.336 32.5309 29.336 32.5309 29.144 32.8989C29.064 33.0589 29.016 33.1389 28.92 33.3149H30.616C31 33.3149 31.304 33.2829 31.544 33.2349L32.088 33.7949C31.944 33.9869 31.944 33.9869 31.72 34.3549C31.096 35.3629 30.76 35.8269 30.152 36.4989C30.984 37.1069 31.736 37.5229 33.016 38.0349C32.824 38.3069 32.712 38.5149 32.584 38.9149C31.336 38.3389 30.488 37.8269 29.56 37.0909C28.936 37.6669 28.456 38.0509 27.544 38.6429C27.784 38.6589 27.912 38.6589 28.232 38.6589H30.712C31.288 38.6589 31.56 38.6429 31.848 38.5949C31.8 38.9469 31.784 39.3469 31.784 40.0029V41.4269C31.784 42.4989 31.784 42.4989 31.816 42.8349C31.656 42.8189 31.272 42.8189 30.632 42.8029H28.024V43.8109H27.032C27.064 43.4749 27.096 42.9789 27.096 42.3549ZM30.872 34.1149H28.44C28.36 34.2589 28.312 34.3069 28.184 34.5149C28.68 35.2029 28.936 35.4749 29.496 35.9709C30.088 35.3469 30.408 34.9149 30.872 34.1149ZM28.024 39.4749V41.9709H30.872V39.4749H28.024ZM28.968 31.1069V30.5949C28.968 30.1309 28.936 29.8589 28.872 29.5229H30.04C29.96 29.8589 29.944 30.1149 29.944 30.6109V31.1069H31.544C32.28 31.1069 32.584 31.0909 32.84 31.0589C32.808 31.3309 32.792 31.5869 32.792 32.0189V32.5469C32.792 32.8829 32.808 33.2829 32.84 33.4589H31.928V31.9389H26.936V33.6669H25.96C26.008 33.3789 26.024 33.1069 26.024 32.7549V32.0509C26.024 31.7309 26.008 31.4429 25.96 31.0589C26.2 31.0909 26.536 31.1069 27.272 31.1069H28.968ZM36.072 30.8989H34.312C33.576 30.8989 33.144 30.9309 32.744 30.9949V29.9069C33.192 29.9869 33.512 30.0029 34.312 30.0029H38.6C39.384 30.0029 39.816 29.9709 40.168 29.9069V30.9949C39.672 30.9149 39.352 30.8989 38.6 30.8989H37.064C36.872 31.5549 36.712 32.0189 36.44 32.6429H38.04C38.776 32.6429 39.176 32.6269 39.48 32.5789C39.448 33.0269 39.432 33.3949 39.432 34.0349V39.3309C39.432 39.9869 39.448 40.3709 39.48 40.8669C39 40.8349 38.6 40.8189 38.104 40.8189H34.616C34.136 40.8189 33.736 40.8349 33.24 40.8669C33.272 40.3869 33.288 39.9389 33.288 39.4109V34.0989C33.288 33.4429 33.272 32.9469 33.224 32.5949C33.608 32.6269 33.944 32.6429 34.616 32.6429H35.48C35.736 32.0029 35.912 31.4909 36.072 30.8989ZM34.216 33.5069V35.0429H38.488V33.5069H34.216ZM34.216 35.8909V37.4749H38.488V35.8909H34.216ZM34.216 38.3229V39.9709H38.488V38.3229H34.216ZM36.744 41.6669L37.48 41.0749C38.488 42.0189 39.176 42.4829 40.616 43.1549C40.344 43.4429 40.136 43.7149 39.96 44.0509C38.552 43.2989 37.768 42.7069 36.744 41.6669ZM34.872 41.0589L35.656 41.6669C34.584 42.7549 33.752 43.3469 32.312 44.0509C32.136 43.7309 31.912 43.4909 31.64 43.2349C33.08 42.6429 33.88 42.0989 34.872 41.0589Z" fill="#F0F7FF"/>
<path d="M46 0.754883V48.7549L71 25.7549L46 0.754883Z" fill="#707070"/>
<path d="M0 0.754883V49.5L12 26L0 0.754883Z" fill="#A6E8F8"/>
</svg>
