<?xml version="1.0" encoding="UTF-8"?><svg id="b" xmlns="http://www.w3.org/2000/svg" width="204.837" height="311.049" viewBox="0 0 204.837 311.049"><defs><style>.e{fill:#fff;}.f{fill:#211715;}.g{fill:#645d5c;}.h{fill:#febe69;}</style></defs><g id="c"><path class="e" d="M147.671,78.01c1.483-1.425,3.481-1.96,5.191-1.9,3.721.131,5.304,2.144,5.985,3.325,2.034,3.527,1.948,10.026.583,14.047-.967,2.848-2.55,7.204-6.368,10.328-1.573,1.287-3.889,2.135-6.102,1.761l-.516-.087c-.702,2.317-1.567,4.585-2.096,5.687-1.548,4.202-10.091,18.92-20.908,24.704.202,2.228.295,3.795.575,6.228.377,3.278.785,5.719,5.043,7.796.17.062,5.061,2.343,9.302,4.301-1.54,1.055-2.728,1.871-2.728,1.871-10.296,7.933-21.723,11.009-33.198,11.009-11.713,0-22.902-3.077-33.198-11.009,0,0-1.082-.747-2.462-1.699,4.322-1.994,9.499-4.408,9.675-4.473,4.258-2.077,4.666-4.518,5.043-7.796.246-2.142.348-3.613.506-5.452-5.314-2.338-10.044-6.264-14.536-11.641-5.506-6.59-8.638-13.689-10.367-19.568-2.377.645-4.961-.235-6.669-1.633-3.818-3.124-5.402-7.48-6.368-10.328-1.365-4.021-1.451-10.52.583-14.047.681-1.182,2.264-3.194,5.985-3.325,1.71-.06,3.708.475,5.191,1.9,0,0-11.952-42.744,45.929-42.744s45.929,42.744,45.929,42.744Z"/><path class="g" d="M154.611,41.04c-2.275-6.953-6.002-13.099-11.419-17.436l-6.106-6.403c-6.926-9.132-18.185-14.082-34.27-14.788-20.924-.708-36.371,8.656-43.208,17.376l1.402,1.449c-14.192,12.318-19.358,34.353-12.476,55.201.625-.182,1.34-.301,2.158-.33,1.71-.06,3.708.475,5.191,1.9l7.341-6.164c5.509-6.139,15.232-15.391,22.055-18.97.8-.42,1.828.148,2.152,1.485.313,1.292.312,2.273.21,3.201-.155,1.41,1.214,2.435,2.376,1.79,4.871-2.706,13.55-8.152,19.705-10.745l9.126,1.121c2.938,1.277,5.173,2.505,8.405,5.286,5.54,4.767,10.851,11.306,13.203,17.225l7.285,5.772c1.483-1.425,3.481-1.96,5.191-1.9.937.033,1.739.185,2.425.414,2.819-11.151,2.896-24.351-.747-35.484Z"/><path class="f" d="M50.771,75.557c-4.606-14.319-3.854-30.619,4.228-43.583,2.113-3.389,4.707-6.408,7.711-9.038,2.328-2.039-1.078-5.423-3.394-3.394-12.061,10.563-17.271,27.2-16.017,42.907.39,4.889,1.343,9.716,2.844,14.384.942,2.929,5.578,1.676,4.629-1.276h0Z"/><path class="f" d="M141.496,25.301c11.149,9.029,14.168,24.66,13.411,38.302-.225,4.062-.829,8.076-1.798,12.027-.736,3,3.891,4.279,4.629,1.276,3.632-14.799,3.052-32.15-4.831-45.551-2.102-3.574-4.79-6.835-8.016-9.448-1.006-.815-2.41-.984-3.394,0-.843.843-1.012,2.574,0,3.394h0Z"/><path class="f" d="M117.639,51.799c4.614,2.021,8.373,5.021,11.853,8.639s6.76,7.769,8.653,12.438c.487,1.2,1.598,2.048,2.952,1.676,1.138-.313,2.166-1.744,1.676-2.952-2.173-5.362-5.651-10.089-9.615-14.271-3.79-3.998-8.029-7.455-13.096-9.674-1.186-.52-2.576-.348-3.284.861-.595,1.018-.333,2.761.861,3.284h0Z"/><path class="f" d="M64.923,73.543c5.447-6.051,11.473-11.982,18.23-16.564.712-.483,1.435-.947,2.177-1.382.171-.1.852-.446.861-.505-.031.205-.974-.331-1.071-.093-.089.22.187,1.367.182,1.668-.009.53-.075,1.028-.023,1.558.122,1.236.788,2.402,1.848,3.075,2.095,1.331,4.018.189,5.891-.889,1.743-1.003,3.475-2.026,5.215-3.036,4.133-2.4,8.3-4.82,12.703-6.696,1.193-.508,1.457-2.266.861-3.284-.722-1.234-2.086-1.371-3.284-.861-3.928,1.673-7.663,3.791-11.358,5.918-1.815,1.045-3.619,2.107-5.429,3.16-.767.446-1.536.891-2.309,1.327-.148.084-.376.15-.489.274-.294.322.424-.103.726.041.085.041.418.304.369.323.072-.027.072-.602.076-.725.081-2.266-.455-5.042-2.686-6.125-2.076-1.008-4.001.371-5.713,1.468-3.645,2.336-7.007,5.143-10.221,8.034-3.481,3.132-6.814,6.44-9.948,9.92-2.062,2.29,1.322,5.696,3.394,3.394h0Z"/><path class="f" d="M61.307,21.487c6.146-7.772,15.523-12.639,25.031-15.004,6.365-1.583,12.934-2.009,19.465-1.485,5.619.451,11.331,1.539,16.526,3.789,4.917,2.13,9.411,5.35,12.686,9.626.787,1.027,2.066,1.573,3.284.861,1.011-.592,1.654-2.248.861-3.284-3.316-4.33-7.449-7.868-12.317-10.357-5.554-2.84-11.606-4.33-17.768-5.101-13.195-1.653-26.974.5-38.598,7.131-4.721,2.693-9.179,6.149-12.565,10.43-.803,1.016-.991,2.403,0,3.394.834.834,2.586,1.022,3.394,0h0Z"/><path class="f" d="M144.998,101.463c-.69,3.357-1.951,6.568-3.144,9.524.168-.415.121-.273-.012.015-.09.196-.18.392-.273.587-.23.482-.472.958-.721,1.429-.56,1.062-1.16,2.103-1.784,3.128-3.317,5.443-7.36,10.59-12.313,14.639-2.708,2.214-5.757,3.969-9.144,4.752-3.008.695-1.735,5.325,1.276,4.629,7.035-1.626,12.883-6.782,17.461-12.133,3.739-4.37,7.233-9.276,9.611-14.539.165-.366.323-.736.476-1.108.039-.096.271-.657.132-.331-.157.368.048-.096.085-.179.137-.306.265-.617.394-.927.196-.472.383-.948.563-1.426.828-2.208,1.546-4.473,2.021-6.785.261-1.268-.368-2.593-1.676-2.952-1.188-.326-2.69.401-2.952,1.676h0Z"/><path class="f" d="M53.871,102.575c1.546,6.819,4.323,13.435,8.22,19.247,4.173,6.224,9.635,12.053,16.255,15.696,3.353,1.845,7.005,3.099,10.79,3.659,1.281.189,2.579-.319,2.952-1.676.311-1.131-.386-2.761-1.676-2.952-13.567-2.007-23.697-13.727-28.875-25.772-1.311-3.049-2.304-6.242-3.037-9.477-.682-3.011-5.311-1.737-4.629,1.276h0Z"/><path class="f" d="M93.257,116.853c2.819,1.489,5.855,2.115,9.043,2.094,3.257-.021,6.531-.669,9.137-2.7.995-.775.875-2.591,0-3.394-1.055-.969-2.332-.827-3.394,0,.731-.57.176-.143-.012-.022-.181.116-.367.223-.557.323-.098.052-.2.098-.298.149-.34.175-.056-.1.108-.036-.109-.042-.643.239-.769.279-.701.225-1.423.382-2.151.491.359-.054-.033,0-.189.016-.211.021-.422.039-.634.052-.509.033-1.019.046-1.529.043-.457-.003-.913-.018-1.369-.049-.209-.014-.418-.031-.627-.052-.037-.004-.791-.119-.287-.031-.678-.119-1.349-.249-2.01-.446-.282-.084-.556-.185-.834-.28-.609-.208.367.188-.182-.071-.345-.163-.684-.332-1.021-.51-1.11-.586-2.66-.318-3.284.861-.586,1.109-.324,2.658.861,3.284h0Z"/><path class="f" d="M101.054,95.584c.393,1.498.77,3.02.995,4.554l-.086-.638c.027.21.038.417.017.629l.086-.638c-.015.098-.036.189-.069.283l.242-.573c-.029.066-.06.122-.1.182l.375-.486c-.047.057-.091.101-.149.147l.486-.375c-.115.074-.237.134-.361.191l.573-.242c-.199.083-.395.144-.608.177l.638-.086c-.192.023-.379.021-.571-.001l.638.086c-.215-.03-.426-.082-.642-.111-.319-.1-.638-.114-.957-.043-.319.014-.617.109-.892.285-.498.291-.973.862-1.103,1.434-.14.614-.11,1.304.242,1.849.312.484.835,1.022,1.434,1.103.496.067.976.193,1.481.215.776.034,1.496-.204,2.189-.522.857-.393,1.527-1.167,1.755-2.09.193-.782.111-1.461-.022-2.245-.248-1.467-.587-2.921-.964-4.36-.318-1.214-1.729-2.072-2.952-1.676-1.25.404-2.018,1.651-1.676,2.952h0Z"/><path class="f" d="M77.035,82.669c-.761,2.472-.265,8.157,4.417,8.641,6.189-.037,6.518-6.911,4.435-10.143-1.706-2.646-6.721-3.747-8.852,1.502Z"/><path class="f" d="M126.594,82.669c.761,2.472.265,8.157-4.417,8.641-6.189-.037-6.518-6.911-4.435-10.143,1.706-2.646,6.721-3.746,8.852,1.502Z"/><path class="f" d="M149.368,79.707c2.121-1.911,5.591-1.413,7.151.508-.337-.415.118.202.173.292.132.217.274.454.376.679.322.709.506,1.505.66,2.263.337,1.66.35,3.394.232,5.079-.206,2.948-1.189,5.878-2.552,8.49-1.429,2.741-4.202,6.726-7.811,6.24-1.283-.173-2.576.308-2.952,1.676-.307,1.118.383,2.778,1.676,2.952,8.433,1.135,13.338-7.095,15.52-14.064,1.094-3.493,1.22-7.351.642-10.947-.479-2.981-1.748-5.807-4.278-7.568-3.699-2.575-8.977-1.926-12.231,1.007-2.3,2.072,1.104,5.458,3.394,3.394h0Z"/><path class="f" d="M57.51,76.313c-3.076-2.771-7.509-3.35-11.246-1.575-2.697,1.281-4.276,3.948-4.983,6.754-1.681,6.67.031,14.34,3.865,19.993,2.807,4.138,6.824,7.1,12.017,6.401,1.286-.173,1.986-1.823,1.676-2.952-.381-1.388-1.662-1.85-2.952-1.676-3.549.478-6.296-3.387-7.73-6.083-1.409-2.65-2.424-5.645-2.633-8.647-.188-2.691,0-6.436,1.505-8.394-.163.212.33-.355.388-.414.303-.312.25-.253.509-.42.553-.357,1.114-.566,1.764-.691,1.565-.301,3.223.015,4.426,1.099,2.29,2.063,5.695-1.321,3.394-3.394h0Z"/><path class="f" d="M145.145,154.665c-.534-.187.569.259.122.057-.253-.114-.509-.223-.762-.337-.77-.344-1.537-.695-2.303-1.046-2-.916-3.997-1.841-5.993-2.766-1.651-.765-3.301-1.533-4.953-2.295-.325-.15-.65-.302-.978-.446-1.22-.535-.516-.266-.331-.165-.199-.108-.4-.212-.596-.325-.351-.203-.709-.418-1.027-.67.045.036-.336-.318-.431-.413-.116-.117-.229-.237-.336-.363-.162-.189.094.17-.12-.169-.467-.739-.417-.623-.643-1.458-.079-.292-.143-.589-.199-.886-.029-.153-.054-.307-.079-.46-.126-.768.053.475-.046-.319-.244-1.962-.393-3.935-.561-5.904-.11-1.292-1.024-2.4-2.4-2.4-1.213,0-2.511,1.101-2.4,2.4.161,1.887.309,3.776.532,5.657.17,1.438.337,2.885.884,4.236.627,1.551,1.589,2.834,2.909,3.866.751.587,1.545,1.111,2.41,1.516.274.128,1.127.646.029.012.017.01.037.015.054.024.068.035.141.063.21.095,3.642,1.701,7.293,3.385,10.946,5.062,1.572.722,3.151,1.556,4.786,2.129,1.223.428,2.626-.487,2.952-1.676.364-1.324-.448-2.522-1.676-2.952h0Z"/><path class="f" d="M61.633,159.294c1.397-.489,2.747-1.195,4.09-1.81,2.128-.975,4.252-1.959,6.376-2.944,1.648-.764,3.293-1.532,4.944-2.29.165-.076.333-.146.496-.227.323-.159-.477.2-.455.19.611-.265,1.198-.544,1.766-.893,1.442-.887,2.761-2.066,3.592-3.559s1.127-3.12,1.342-4.795c.268-2.083.429-4.177.608-6.269.11-1.293-1.182-2.4-2.4-2.4-1.39,0-2.289,1.103-2.4,2.4-.154,1.804-.295,3.608-.502,5.407-.018.16-.123.945-.069.582-.04.27-.083.54-.136.808-.058.296-.125.59-.208.881-.05.175-.351.938-.177.568-.112.237-.245.46-.375.687-.026.046-.298.429-.146.23.157-.205-.162.181-.197.218-.547.573-.909.845-1.63,1.264-.138.08-.319.146-.443.244-.463.365.647-.261-.197.125-.117.054-.24.1-.358.152-.165.073-.328.149-.492.224-3.56,1.634-7.105,3.298-10.665,4.933-.92.422-1.839.844-2.762,1.259-.293.132-.586.261-.879.391-.631.28.519-.186.002-.005-1.223.428-2.036,1.641-1.676,2.952.326,1.186,1.723,2.107,2.952,1.676h0Z"/><path class="e" d="M5.648,225.565c.628-5.573,1.313-10.838,2.088-15.439,2.295-13.622,6.824-26.097,17.723-35.2,11.435-9.55,26.899-16.17,41.026-21.112,11.041,9.612,23.183,13.266,35.947,13.266,12.505,0,24.954-3.654,35.944-13.265,14.126,4.94,29.593,11.56,41.029,21.111,10.899,9.103,15.428,21.578,17.723,35.2,1.936,11.488,3.308,27.114,4.631,41.343,1.322,19.886,2.734,40.167-17.041,51.771-5.382,3.158-11.671,4.864-17.991,5.005-40.126,0-82.211,0-122.338,0-8.339,1.265-17.15-.374-24.342-4.624C.272,291.936,1.834,271.341,3.105,251.468c.793-8.53,1.604-17.562,2.543-25.903Z"/><path class="f" d="M156.181,309.425c13.077,3.266,27.368-.308,37.148-9.652,8.116-7.753,10.998-18.622,11.434-29.525.251-6.264-.19-12.532-.605-18.779-.086-1.294-1.041-2.4-2.4-2.4-1.232,0-2.486,1.1-2.4,2.4.671,10.099,1.636,20.662-1.061,30.557-1.234,4.527-3.326,8.823-6.443,12.358-3.691,4.186-8.543,7.468-13.798,9.346-6.604,2.36-13.79,2.767-20.598,1.067-2.997-.749-4.276,3.879-1.276,4.629h0Z"/><path class="f" d="M47.307,305.205c-11.78,2.963-24.784-.502-33.262-9.282-6.912-7.159-8.934-17.032-9.179-26.669-.151-5.935.26-11.867.639-17.786.083-1.295-1.162-2.4-2.4-2.4-1.368,0-2.317,1.101-2.4,2.4-.698,10.896-1.649,22.276,1.446,32.913,3.347,11.504,12.038,20.331,23.282,24.378,7.38,2.656,15.556,2.984,23.15,1.074,2.994-.753,1.725-5.383-1.276-4.629h0Z"/><path class="f" d="M67.929,150.78c-8.396,2.876-16.707,6.085-24.664,10.03-7.686,3.811-15.342,8.353-21.599,14.284-5.955,5.645-10.109,12.815-12.805,20.518-2.723,7.781-3.887,15.988-4.919,24.133-1.336,10.546-2.254,21.141-3.237,31.723-.12,1.292,1.189,2.4,2.4,2.4,1.398,0,2.28-1.104,2.4-2.4.857-9.229,1.674-18.464,2.745-27.671.916-7.877,1.913-15.827,4.137-23.46,2.092-7.18,5.395-14.057,10.475-19.613,5.534-6.052,12.775-10.523,19.977-14.315,8.442-4.446,17.35-7.912,26.365-11.001,2.905-.995,1.658-5.634-1.276-4.629h0Z"/><path class="f" d="M135.659,155.408c8.008,2.744,15.927,5.783,23.518,9.546,7.374,3.656,14.788,7.949,20.77,13.67,11.484,10.983,14.402,26.852,16.28,41.961,1.277,10.269,2.174,20.581,3.131,30.883.12,1.291,1.017,2.4,2.4,2.4,1.205,0,2.521-1.102,2.4-2.4-.884-9.518-1.724-19.043-2.847-28.537-.97-8.197-1.991-16.492-4.37-24.422-2.336-7.788-6.036-15.149-11.547-21.18-5.787-6.334-13.412-11.097-20.949-15.066-8.801-4.635-18.112-8.265-27.511-11.485-2.929-1.003-4.186,3.632-1.276,4.629h0Z"/><path class="f" d="M68.023,158.143c15.133,11.564,36.172,14.505,54.074,8.05,5.308-1.914,10.262-4.626,14.745-8.05,1.028-.786,1.573-2.067.861-3.284-.592-1.012-2.247-1.653-3.284-.861-7.243,5.532-15.753,9.183-24.831,10.264-8.592,1.024-17.443.268-25.599-2.69-4.89-1.774-9.418-4.422-13.544-7.574-1.031-.788-2.686-.16-3.284.861-.722,1.235-.172,2.494.861,3.284h0Z"/><path class="f" d="M44.389,310.644c15.298,0,30.597,0,45.895,0,16.134,0,32.267,0,48.401,0,8.361,0,16.722,0,25.083,0,3.089,0,3.094-4.8,0-4.8-15.298,0-30.597,0-45.895,0-16.134,0-32.267,0-48.401,0-8.361,0-16.722,0-25.083,0-3.089,0-3.094,4.8,0,4.8h0Z"/><path class="f" d="M88.429,185.162c-3.828,2.719-7.13,5.958-9.946,9.712-.349.465-.389,1.316-.242,1.849.153.557.584,1.16,1.103,1.434.557.294,1.232.442,1.849.242.632-.205,1.038-.575,1.434-1.103.079-.105.158-.209.237-.314.178-.238-.312.394-.039.05.163-.205.325-.411.491-.614.331-.406.671-.806,1.017-1.199.676-.766,1.382-1.507,2.114-2.22s1.491-1.399,2.274-2.055c.201-.168.403-.335.608-.499.082-.066.164-.131.246-.196.1-.079.552-.399.01-.011.426-.305.838-.629,1.266-.933.521-.37.928-.799,1.103-1.434.158-.574.087-1.339-.242-1.849-.653-1.013-2.189-1.638-3.284-.861h0Z"/><path class="f" d="M78.493,226.388c-.028.313-.028.351-.001.116-.019.113-.044.225-.074.336-.022.087-.255.673-.119.399.173-.348-.513.592.018.005-.113.125-.236.237-.354.357.238-.243.243-.169-.043-.006-.22.125-.5.126-.001.023-.299.062-.601.174-.9.245-.1.019-.2.036-.3.051.367-.047.457-.06.27-.038-.154.006-.308.034-.462.04-.116.005-.834-.075-.377.015l-.229-.051c-.272-.092-.298-.09-.078.007-.214-.135-.257-.15-.13-.046.118.108.091.079-.082-.089.106.201-.071-.384-.031-.112-.048-.328-.006-1.202-.017-1.717-.055-2.609-.246-5.216-1.036-7.719-.767-2.431-2.003-4.538-3.563-6.535-.799-1.022-2.556-.838-3.394,0-1.009,1.009-.801,2.369,0,3.394.639.817,1.38,2.069,1.875,3.163.12.268.141.316.061.144.064.162.125.324.183.488.118.33.226.664.324,1.001.177.609.322,1.227.441,1.85.273,1.429.279,2.907.311,4.374.019.853-.003,1.728.149,2.569.164.912.606,1.697,1.215,2.39,1.661,1.888,4.648,1.99,6.896,1.257,2.715-.885,4.039-3.156,4.247-5.912.097-1.294-1.173-2.4-2.4-2.4-1.38,0-2.302,1.102-2.4,2.4h0Z"/><path class="f" d="M70.725,226.307c-.033.224-.073.444-.136.662-.03.104-.065.207-.104.308.143-.326.158-.374.045-.141-.01.015-.229.405-.242.396.225-.279.256-.321.092-.126-.067.076-.137.149-.21.219-.073.07-.148.138-.225.203.289-.216.33-.25.121-.102-.132.076-.257.163-.392.235-.09.048-.182.093-.275.135.339-.139.386-.163.144-.072-.15.041-.296.094-.447.131-.101.025-.203.046-.305.065-.263.043-.206.036.172-.022-.023-.041-.606.041-.685.009.303.044.366.046.187.006-.089-.021-.177-.046-.264-.077.287.132.309.14.066.023-.11-.058-.217-.12-.321-.187-.218-.152-.208-.138.033.044-.096-.08-.19-.163-.28-.249-.348-.253.167.375-.044-.032-.059-.095-.114-.192-.164-.292.124.318.138.352.044.104-.06-.194-.124-.385-.174-.582-.407-1.614-.531-3.275-1.08-4.858-.671-1.934-1.72-3.54-2.997-5.126-.791-.982-2.582-.885-3.394,0-.957,1.043-.844,2.346,0,3.394.107.133.372.497.125.154.111.154.226.305.335.46.234.333.455.675.659,1.028.161.279.311.565.448.857.033.071.062.144.097.214.142.286-.159-.446-.062-.142.055.172.129.34.187.511.482,1.418.658,2.895.958,4.355.395,1.925,1.488,3.645,3.293,4.533,1.944.956,4.046.788,5.965-.136,1.784-.858,3.177-2.655,3.463-4.624.097-.665.112-1.245-.242-1.849-.291-.498-.862-.973-1.434-1.103-1.137-.259-2.759.348-2.952,1.676h0Z"/><path class="f" d="M87.269,234.791c-3.035,9.453-13.853,14.92-23.088,11.644-5.309-1.884-8.796-6.43-9.919-11.851-.709-3.422-1.102-6.982-1.269-10.47-.16-3.325-.147-6.841,1.083-9.988.523-1.339,1.31-2.57,2.351-3.564,1.14-1.089,2.699-1.71,3.804-2.815.664-.664.585-1.488.933-2.278.3-.68.878-1.219,1.502-1.602,1.346-.828,2.927-.578,4.39-.268,1.207.256,2.673-.346,2.952-1.676.432-2.058.704-3.703,2.656-4.705.472-.242,1.199-.418,2.041-.273,1.434.247,2.734,1.148,3.867,2.02,1.909,1.47,3.854,3.507,5.219,5.324,1.336,1.778,2.655,3.899,3.2,6.074,1.094,4.366.676,9.265.366,13.718-.028.407-.059.814-.091,1.221-.01.121-.017.243-.029.364-.059.561.155-.53-.033.143-.138.492-.311.99-.845,1.253-.769.379-1.706.07-2.243-.45-.004-.003-.309-.342-.136-.14-.067-.079-.301-.716-.168-.266-.19-.641-.182-1.373-.256-2.034-.735-6.602-1.493-13.269-6.086-18.439-2.056-2.314-5.441,1.091-3.394,3.394,2.157,2.428,3.178,5.452,3.792,8.591.299,1.527.503,3.066.681,4.611.195,1.696.161,3.626.67,5.255,1.003,3.208,4.62,4.907,7.79,4.272,2.954-.592,4.737-3.26,5.02-6.108.523-5.253.8-10.909-.284-16.102-.584-2.798-2.143-5.49-3.811-7.78-1.932-2.653-4.31-5.084-6.941-7.046-3.079-2.295-6.879-3.644-10.528-1.859-1.39.68-2.645,1.697-3.499,2.993-.929,1.412-1.248,3.071-1.588,4.693l2.952-1.676c-2.615-.555-5.268-.739-7.715.542-2.278,1.193-3.937,3.373-4.398,5.9l1.103-1.434c-2.598,1.763-5.104,3.509-6.699,6.296-1.695,2.962-2.295,6.373-2.449,9.742-.171,3.738.224,7.474.728,11.173.46,3.376.984,6.628,2.444,9.738,2.509,5.344,7.652,9.283,13.354,10.673,5.24,1.277,10.761.474,15.559-1.922,5.535-2.764,9.751-7.732,11.638-13.61.946-2.948-3.686-4.21-4.629-1.276h0Z"/><g id="d"><rect class="h" x="71.829" y="178.427" width="82.26" height="45.593" rx="7.586" ry="7.586" transform="translate(-102.388 284.149) rotate(-81.753)"/><path class="f" d="M90.65,241.957c8.145,1.181,16.291,2.361,24.436,3.542l5.526.801c1.423.206,2.839.477,4.28.302,3.987-.486,7.363-3.559,8.027-7.563.078-.47.137-.945.205-1.416l3.382-23.332c1.496-10.318,2.991-20.637,4.487-30.955l1.437-9.914c.1-.687.201-1.373.299-2.061.422-2.978-.253-5.81-2.308-8.076-2.689-2.964-6.783-3.03-10.457-3.563l-15.442-2.238c-3.531-.512-7.062-1.033-10.594-1.536-5.313-.756-10.187,2.45-10.992,7.895-1.008,6.811-1.975,13.628-2.963,20.443l-4.578,31.582-1.644,11.341c-.282,1.949-.879,4.243-.715,6.217.349,4.201,3.393,7.809,7.615,8.531,1.276.218,2.585-.339,2.952-1.676.317-1.154-.392-2.733-1.676-2.952-1.542-.263-2.871-.982-3.612-2.413-.325-.627-.497-1.298-.504-2.002-.002-.224.056-1.048-.014-.41.001-.013.004-.026.006-.04.06-.529.153-1.055.229-1.582l1.274-8.789c1.421-9.8,2.841-19.6,4.262-29.4l3.606-24.88c.273-1.884.304-4.383,1.661-5.823.437-.464.947-.838,1.536-1.091.292-.125.678-.243.989-.297.215-.038.469-.037.683-.039.088,0,1.008.046.552.008-.349-.029.411.058.514.073l4.362.632,25.935,3.759c1.8.261,3.435.886,4.271,2.645.278.585.425,1.209.429,1.855,0,.071-.071,1.178.013.412-.002.015-.005.03-.007.046-.02.179-.052.357-.077.535l-1.033,7.129-4.102,28.298c-1.289,8.892-2.578,17.784-3.867,26.677-.246,1.7-.46,3.408-.74,5.103-.17,1.031-.489,1.951-1.212,2.725-.475.509-1.042.895-1.693,1.144-.254.097-.572.199-.832.243-.216.036-.461.038-.683.039-.063,0-1.182-.069-.41.014-.826-.088-1.65-.239-2.472-.358l-26.865-3.894-2.201-.319c-1.281-.186-2.579.317-2.952,1.676-.31,1.128.385,2.765,1.676,2.952Z"/><path class="f" d="M111.536,167.075c-1.971-.286-3.941-.574-5.912-.86-.665-.096-1.245-.112-1.849.242-.498.291-.973.862-1.103,1.434-.14.614-.11,1.304.242,1.849.314.487.833,1.016,1.434,1.103,1.971.286,3.941.574,5.912.86.665.096,1.245.112,1.849-.242.498-.291.973-.862,1.103-1.434.14-.614.11-1.304-.242-1.849-.314-.487-.833-1.016-1.434-1.103h0Z"/></g><path class="e" d="M138.639,210.731c-2.25-3.646-4.905-7.043-7.906-10.101-1.354-1.38-2.845-2.732-4.691-3.307s-4.132-.157-5.214,1.445c-1.501,2.222-.055,5.183,1.381,7.448,2.668,4.208,5.336,8.415,8.004,12.623-5.196-2.448-10.391-4.896-15.587-7.344-2.283-1.076-4.732-2.179-7.231-1.825-2.499.354-4.442,2.645-3.665,5.046.456,1.409,1.258,2.175,2.346,2.862-.896-.381-1.445-.611-1.445-.611-2.634-1.107-4.949.589-5.407,2.344s.396,3.603,1.547,5.005c1.468,1.789,3.389,3.099,5.423,4.236-.692,1.256-1.448,2.626-1.448,2.626-1.671-.426-3.081,1.541-3.047,3.265.034,1.76.97,3.405,2.209,4.655s2.771,2.162,4.285,3.06c4.363,2.589,8.726,5.178,13.089,7.768.186,4.791,1.437,10.387,5.494,13.241,3.555,2.501,8.612,2.202,12.311-.081,3.698-2.283,6.129-6.247,7.332-10.423,1.203-4.176,1.296-8.588,1.176-12.932-.165-5.98-.767-12.134-3.499-17.445-1.376-4.042-3.215-7.922-5.456-11.553Z"/><path class="f" d="M105.268,214.651c-3.912-1.474-8.079,1.1-8.555,5.204-.333,2.871.773,5.859,3.002,7.705,3.924,3.249,8.529,5.767,12.943,8.273,2.12,1.204,4.252,2.396,6.429,3.496,1.156.585,2.602.305,3.284-.861.625-1.068.3-2.697-.861-3.284-3.647-1.844-7.203-3.893-10.711-5.988-1.963-1.173-3.915-2.372-5.804-3.662-.363-.247-.723-.498-1.079-.756-.174-.126-.345-.255-.518-.382-.221-.162.136.108.144.114-.105-.083-.211-.164-.314-.249-.233-.192-.466-.384-.685-.593-.096-.092-.189-.186-.282-.282-.035-.036-.068-.075-.102-.112.297.324.042.05-.084-.158-.598-.993-.812-2.437-.468-3.398-.065.183.115-.132.204-.221.191-.194.203-.217.513-.359.44-.202,1.024-.102,1.669.141,1.213.457,2.631-.508,2.952-1.676.37-1.347-.459-2.494-1.676-2.952h0Z"/><path class="f" d="M105.601,227.035c-2.937.245-5.248,2.009-6.036,4.904-.82,3.013.494,6.046,2.425,8.34,2.211,2.627,5.466,4.234,8.367,5.956,3.237,1.921,6.474,3.842,9.711,5.763l-1.189-2.072c.181,4.12.94,8.559,3.378,11.995,2.705,3.813,7.094,5.828,11.767,5.319,4.746-.517,8.634-3.165,11.403-6.975,2.9-3.989,4.073-8.931,4.455-13.774.399-5.055.157-10.277-.589-15.29-.734-4.936-2.682-9.497-4.632-14.055-1.876-4.387-4.294-8.526-7.181-12.324-1.482-1.95-3.056-3.825-4.758-5.587-1.716-1.776-3.634-3.486-6.043-4.225-2.394-.734-5.309-.258-7.12,1.545-2.017,2.008-2.103,5.009-1.127,7.533,1.076,2.784,2.915,5.251,4.505,7.757,1.734,2.735,3.468,5.47,5.202,8.205l3.284-3.284c-4.231-1.993-8.462-3.987-12.692-5.98-3.795-1.788-8.307-4.577-12.672-3.279-4.058,1.207-6.123,5.643-3.978,9.398.876,1.534,2.329,2.52,3.838,3.357,1.74.964,3.484,1.918,5.218,2.894,4.165,2.345,8.302,4.739,12.454,7.107,2.687,1.533,5.109-2.613,2.423-4.145-3.973-2.266-7.932-4.556-11.915-6.804-1.802-1.017-3.611-2.019-5.424-3.015-1.004-.552-2.838-1.324-2.713-2.766.122-1.411,2.082-1.643,3.187-1.491,2.128.294,4.136,1.463,6.047,2.364,4.602,2.168,9.204,4.337,13.806,6.505,2.018.951,4.673-1.093,3.284-3.284-1.601-2.525-3.201-5.049-4.802-7.574-1.496-2.36-3.388-4.742-4.457-7.336-.649-1.575-.62-3.322,1.489-3.236,2.156.088,3.882,2.155,5.251,3.603,3.478,3.679,6.413,7.825,8.768,12.306,1.144,2.177,2.142,4.422,2.97,6.738.885,2.476,2.01,4.747,2.603,7.337,1.173,5.118,1.328,10.636,1.054,15.863-.247,4.708-1.337,9.756-4.579,13.366-2.762,3.076-7.269,4.954-11.283,3.168-3.755-1.671-5.11-6.268-5.486-10.021-.163-1.629.015-3.11-1.532-4.113-1.438-.932-2.96-1.756-4.433-2.631-2.815-1.67-5.639-3.326-8.445-5.011-2.09-1.256-4.359-2.822-5.135-5.264-.14-.44-.205-.819-.157-1.272-.045.423.023-.106.053-.21.043-.147.183-.585.181-.58.199-.428.534-.863,1.257-.923,1.292-.108,2.4-1.026,2.4-2.4,0-1.215-1.101-2.509-2.4-2.4h0Z"/><path class="f" d="M135.086,202.691c2.017,2.757,3.115,5.761,4.216,8.873,1.141,3.226,2.128,6.519,2.892,9.856.289,1.264,1.742,2.009,2.952,1.676,1.298-.357,1.966-1.685,1.676-2.952-.785-3.428-1.803-6.813-2.987-10.124-1.193-3.336-2.495-6.869-4.604-9.752-.764-1.045-2.083-1.563-3.284-.861-1.031.603-1.631,2.232-.861,3.284h0Z"/></g></svg>