<svg width="85" height="144" viewBox="0 0 85 144" fill="none" xmlns="http://www.w3.org/2000/svg">
<g clip-path="url(#clip0_234_6450)">
<path d="M4.36203 128.041C4.1017 127.805 3.87658 127.545 3.6862 127.26C3.35733 126.767 2.88948 125.564 3.13962 124.864C3.13962 124.864 3.17714 124.73 3.23318 124.53C2.76349 124.517 2.31464 124.395 1.89358 124.104C1.64345 123.929 1.31457 123.394 1.20803 123.086C1.06907 122.69 1.16634 120.916 1.19877 120.497C1.44427 117.184 2.68104 116.032 4.84423 113.973H16.0067C16.0076 116.308 16.0076 125.85 16.0076 125.85C16.758 127.596 15.7575 129.241 14.7894 129.614C13.4229 130.139 11.3894 130.047 9.12892 129.78C6.96064 129.526 5.38711 128.971 4.36203 128.041Z" fill="#F0F7FF"/>
<path d="M58.0939 29.3636C58.7174 28.931 59.4947 28.8379 60.1339 28.9425C61.5263 29.1696 62.0285 29.9634 62.229 30.4163C62.8275 31.7716 62.4926 34.0793 61.7904 35.4457C61.2957 36.4118 60.5429 37.7501 58.9639 38.6761C58.5196 38.935 57.4672 39.2865 56.4273 39.2621C56.3824 39.346 56.3551 39.3971 56.3551 39.3971C56.0211 40.1024 55.2276 41.338 55.2276 41.338C54.9163 41.8033 54.5958 42.259 54.2576 42.7063L54.2076 44.2285C54.2076 44.9969 54.2039 46.7853 54.5879 48.161C50.8855 50.9496 45.6322 54.1344 41.4091 55.6363L39.5827 55.5672C39.578 55.5764 34.5661 52.3506 34.1418 52.0746C34.1418 52.0746 34.1418 51.0311 34.1409 49.9287C32.1732 49.3703 30.3518 48.3678 28.5953 46.9033C25.5154 44.3353 24.2101 40.3277 23.7756 35.9087C23.525 33.3606 23.3138 30.5913 22.9803 27.8225C22.9803 27.8225 21.9802 13.6694 38.9031 13.6694C60.3859 13.6694 58.0935 29.364 58.0935 29.364L58.0939 29.3636Z" fill="#F0F7FF"/>
<path d="M78.3553 130.718C69.3384 131.01 53.5814 130.738 43.3681 130.39C38.666 130.229 31.1402 130.069 26.4387 129.909C26.2849 127.613 25.9013 100.606 25.4692 93.0901L12.8356 77.3932C13.044 75.7116 13.3312 74.0347 13.6138 72.3578C14.0307 69.9022 14.4707 67.3914 15.9391 65.1524C18.6396 61.0246 24.3649 58.4309 29.84 56.1274L29.9984 56.061C29.9387 55.8602 29.9632 55.6588 30.1272 55.464C30.7525 54.7213 31.5108 54.0634 32.1037 53.4572C32.4618 53.0909 32.8143 52.7191 33.1612 52.3423C33.5818 51.8848 33.5971 51.7194 34.1428 52.0746C34.5666 52.351 39.5785 55.5768 39.5836 55.5672L41.4101 55.6363C45.8212 54.0681 51.3561 50.663 55.0739 47.7915C55.248 48.0601 55.4509 48.3559 55.6677 48.6585C55.683 48.6705 58.6137 50.9385 58.6137 50.9385C64.9115 54.6637 66.7338 54.2003 71.9681 57.0257C73.9886 58.1167 76.9425 60.1447 78.2932 61.9957C80.0182 64.3596 81.2239 67.2753 81.7501 70.1354C82.8016 75.8485 83.7104 86.6431 83.8656 93.5752C81.6385 93.8314 79.0121 94.0078 76.3681 94.0926C76.7391 101.405 77.4057 114.544 77.4057 114.544C77.7401 120.058 78.1626 125.995 78.3557 130.718" fill="#247488"/>
<path d="M23.5279 15.4193C23.2199 16.3518 22.9799 17.2879 22.8159 18.1918C22.3875 20.5593 22.3032 23.9021 22.6844 27.04C22.7543 27.0211 22.7918 27.0109 22.7918 27.0109C28.8103 25.4031 40.9117 19.3841 44.7198 14.8831C46.3452 18.7584 50.7044 25.4777 54.3499 27.1077L58.0936 29.3637C58.717 28.9311 59.4943 28.8381 60.1335 28.9426C61.5259 29.1698 62.0281 29.9635 62.2286 30.4164C62.3241 30.6329 62.3959 30.8739 62.4463 31.131C63.8202 28.6874 63.9657 24.2702 64.0931 22.3763C64.2121 20.5897 64.0403 18.7898 63.6048 17.0479C62.7372 13.5871 61.4143 10.752 58.7115 8.27158C58.7115 8.27158 58.4437 8.02557 58.1755 7.78001C56.7702 6.78997 55.3648 5.79947 55.3648 5.79947C50.8439 2.61421 46.655 1.84392 42.469 2.05354C35.8358 2.3857 30.502 4.93659 26.9278 9.12617C25.4604 10.8469 24.2862 13.1218 23.527 15.4193H23.5279Z" fill="#645D5C"/>
<path d="M66.5763 54.6458C64.4015 53.8465 62.2559 53.0933 58.6123 50.9381L55.6663 48.6577C55.6663 48.6577 55.1077 48.2255 54.4795 47.7395C54.2044 46.4385 54.2076 44.9195 54.2076 44.228C54.2076 44.228 54.2076 43.6734 54.209 42.7718C54.5643 42.3028 54.9011 41.8255 55.2276 41.3376C55.2276 41.3376 56.0211 40.1016 56.3551 39.3967C56.3551 39.3967 56.3857 39.346 56.4361 39.2622C57.4733 39.2847 58.5206 38.9342 58.9639 38.6762C60.5434 37.7502 61.2961 36.4118 61.7904 35.4458C61.7904 35.4458 62.1605 34.7225 62.5389 34.0015C65.3136 34.8602 67.5689 37.2135 68.2976 40.0108C68.9164 42.3862 68.4838 44.8873 68.2503 47.3304C68.0169 49.7735 68.0349 52.4096 69.3977 54.4555C69.3977 54.4555 69.917 55.235 70.6618 56.3531C69.0948 55.5833 67.8307 55.107 66.5763 54.6458Z" fill="#645D5C"/>
<path d="M4.05819 113.191C3.0382 114.162 1.97699 115.141 1.24836 116.359C0.485912 117.633 0.187605 119.087 0.0833825 120.55C0.00232066 121.685 -0.15656 122.974 0.41782 124.005C1.41233 125.789 3.79601 126.055 5.46125 125.049C6.68228 124.311 5.5664 122.397 4.33889 123.139C3.8831 123.415 3.26842 123.546 2.7575 123.327C2.54025 123.234 2.45409 123.101 2.33783 122.889C2.09603 122.449 2.36006 122.94 2.26557 122.74C2.1933 122.586 2.26047 122.964 2.26418 122.723C2.27854 121.757 2.23777 120.791 2.3772 119.829C2.53237 118.76 2.82883 117.934 3.42869 117.073C3.95258 116.322 4.87483 115.474 5.63079 114.754C6.66653 113.768 5.093 112.206 4.05865 113.19L4.05819 113.191Z" fill="#211715"/>
<path d="M14.8959 125.849C14.8959 126.24 15.1326 126.594 15.1562 126.988C15.1743 127.287 15.1219 127.601 15.0006 127.877C14.7861 128.366 14.4943 128.568 14.0783 128.683C12.6072 129.089 10.947 128.877 9.45455 128.711C8.11263 128.562 6.69845 128.307 5.54784 127.564C4.87989 127.132 3.9493 126.07 4.21101 125.157C4.60428 123.786 2.45962 123.201 2.06681 124.57C1.68374 125.906 2.3364 127.436 3.20677 128.445C4.04333 129.416 5.26482 130.014 6.47472 130.38C8.08855 130.869 9.84782 131.024 11.5274 131.087C12.8661 131.137 14.5702 131.143 15.7236 130.36C16.4222 129.886 16.8965 129.174 17.1712 128.387C17.3152 127.974 17.3824 127.514 17.3796 127.078C17.3778 126.827 17.3463 126.571 17.3027 126.324C17.286 126.229 17.2661 126.134 17.242 126.04C17.2319 126 17.1184 125.585 17.1184 125.849C17.1184 124.426 14.895 124.424 14.895 125.849H14.8959Z" fill="#211715"/>
<path d="M27.5499 129.909C27.3035 126.134 27.3531 122.322 27.2752 118.541C27.1511 112.5 27.0307 106.458 26.8565 100.418C26.7861 97.975 26.7194 95.5305 26.58 93.0907C26.4994 91.6759 24.275 91.6667 24.3566 93.0907C24.6433 98.1151 24.7151 103.156 24.83 108.186C24.9606 113.881 25.0662 119.576 25.1931 125.271C25.2274 126.815 25.2255 128.368 25.3261 129.909C25.365 130.505 25.8092 131.015 26.4378 131.015C27.0094 131.015 27.5884 130.508 27.5495 129.909L27.5499 129.909Z" fill="#211715"/>
<path d="M5.42181 77.3938H4.89746C4.89746 79.1283 4.89746 123.415 4.89746 125.838C18.0239 125.838 59.1732 125.988 66.397 125.988H67.8065C67.8065 125.714 67.8065 125.439 67.8065 125.439C67.8065 116.863 67.8459 85.7342 67.8459 77.3933H5.42181V77.3938Z" fill="#BD957A"/>
<path d="M13.9463 77.3932C14.2034 75.3518 14.5467 73.3137 14.9237 71.2912C15.2758 69.4051 15.7542 67.5315 16.784 65.8882C18.5599 63.0544 21.6491 61.219 24.5627 59.7305C26.466 58.7584 28.4305 57.9117 30.3996 57.0824C30.9526 56.8497 31.0735 56.038 30.7984 55.5695C30.4635 55 29.8326 54.9392 29.2772 55.1728C25.735 56.6645 22.1141 58.201 19.0111 60.5003C17.5408 61.5899 16.2063 62.8227 15.1576 64.3278C13.9964 65.9951 13.3446 67.9553 12.9319 69.9257C12.4159 72.3886 12.0361 74.8981 11.7215 77.3937C11.647 77.987 12.2862 78.4993 12.8332 78.4993C13.4961 78.4993 13.8699 77.9889 13.9449 77.3937L13.9463 77.3932Z" fill="#211715"/>
<path d="M84.9977 96.0096C85.0254 91.9398 84.7693 87.8626 84.4543 83.8066C84.1268 79.5866 83.7201 75.3588 83.0499 71.1775C82.6672 68.7897 82.0368 66.5056 80.9756 64.3205C79.8704 62.0446 78.39 60.1654 76.3875 58.6129C74.5388 57.1797 72.5382 55.9888 70.4107 55.0125C68.7686 54.2593 67.0659 53.6691 65.3793 53.0269C64.3917 52.6505 63.4301 52.2401 62.4782 51.7766C61.4536 51.2777 60.1497 50.6382 59.3428 50.1139C58.3316 49.457 57.4061 48.6148 56.4523 47.8768C55.9789 47.5105 55.3415 47.4179 54.8802 47.8768C54.4962 48.2587 54.4035 49.0718 54.8802 49.4404L57.5367 51.4965C59.088 52.6971 60.9946 53.5673 62.7923 54.3468C64.414 55.0499 66.0866 55.6133 67.7306 56.2597C69.5714 56.9834 71.4071 57.8984 73.0941 58.9815C74.9965 60.2023 76.7761 61.6051 77.9939 63.5281C79.3502 65.6689 80.2442 68.0581 80.6981 70.545C81.4138 74.4664 81.7871 78.4547 82.1202 82.431C82.4977 86.9417 82.8057 91.4814 82.7747 96.0101C82.765 97.4332 84.9884 97.435 84.9981 96.0101L84.9977 96.0096Z" fill="#211715"/>
<path d="M53.0959 44.2284C53.0959 45.0959 53.1154 45.9648 53.2196 46.8272C53.3484 47.8905 53.5249 49.0994 54.1937 49.9793C54.3753 50.2184 54.5555 50.4045 54.858 50.4875C55.1239 50.5603 55.4782 50.5276 55.7144 50.376C56.1716 50.083 56.4885 49.3565 56.1133 48.8631C55.9887 48.699 55.8932 48.5231 55.802 48.3392C55.7135 48.1605 55.8932 48.5871 55.8205 48.3821C55.8034 48.3332 55.7844 48.2853 55.7673 48.2365C55.7283 48.1259 55.6936 48.014 55.6621 47.9011C55.5986 47.6749 55.5482 47.4455 55.5055 47.2151C55.4828 47.0912 55.4639 46.9664 55.4439 46.8415C55.412 46.6393 55.4648 47.0378 55.4509 46.8959C55.4444 46.8272 55.4342 46.759 55.4268 46.6904C55.3365 45.8727 55.3189 45.0503 55.3189 44.2284C55.3189 43.6503 54.8075 43.096 54.2072 43.1228C53.6068 43.1495 53.0959 43.6088 53.0959 44.2284Z" fill="#211715"/>
<path d="M45.0574 61.6691C45.3154 62.0957 45.5734 62.5228 45.8319 62.9494C48.7348 60.809 51.5548 58.5308 54.1581 56.0357C55.3272 54.9153 56.6502 53.7243 57.5557 52.3731C58.1602 51.4706 57.6692 51.1974 57.0814 50.4939C56.4408 49.7269 55.6149 48.629 55.0725 47.791C51.3547 50.663 45.8198 54.0676 41.4087 55.6358C42.6251 57.6467 43.841 59.6581 45.0574 61.6691Z" fill="#F0F7FF"/>
<path d="M65.597 114.433C65.2139 114.197 64.8619 114.027 64.5543 113.932L64.6984 113.462C65.5359 111.261 66.9815 106.441 67.8065 103.739V103.537C67.8065 100.422 67.8116 97.2207 67.8172 94.0074C72.1241 94.2819 78.0444 94.1502 82.6756 93.6982C82.8988 97.3645 82.3073 101.039 81.7427 102.772C80.7148 105.929 75.3522 116.917 72.774 119.492C72.774 119.492 72.2682 119.998 71.7619 120.503L71.659 120.372C70.885 119.386 69.4935 117.858 68.6153 116.963C67.5504 115.876 66.4882 114.981 65.5961 114.433L65.597 114.433Z" fill="#F0F7FF"/>
<path d="M34.9177 61.3005C33.4961 60.1364 32.1964 58.8248 31.0453 57.3952C30.6099 56.8544 29.5723 56.1218 30.1267 55.464C30.7521 54.7213 31.5103 54.0634 32.1033 53.4572C32.4613 53.0909 32.8138 52.7191 33.1608 52.3423C33.5814 51.8848 33.5966 51.7194 34.1423 52.0746C34.5661 52.351 39.5781 55.5768 39.5832 55.5672C38.4525 57.7965 36.6858 59.5278 34.9182 61.301L34.9177 61.3005Z" fill="#F0F7FF"/>
<path d="M35.7038 60.5188C34.2253 59.3002 32.9954 57.9181 31.729 56.4941C31.5428 56.2849 31.2491 56.0173 31.1268 55.8505C31.1898 55.9362 30.999 55.6699 31.0249 55.6754C31.0601 55.6833 31.0791 55.8496 31.0796 55.8459C31.0763 55.8657 31.0143 56.108 31.024 56.1154C31.0254 56.1168 31.2959 55.816 31.313 55.7975C31.975 55.0936 32.6967 54.4472 33.3632 53.747C33.6384 53.4576 33.9737 53.1679 34.2007 52.8385L34.2336 52.8048C34.4508 52.5966 34.2137 52.6505 33.5221 52.9675L33.4887 52.9587C33.4086 52.9348 33.4396 52.9578 33.5809 53.0283C33.6138 53.0527 33.6499 53.0734 33.6847 53.0955C33.9552 53.2688 34.2243 53.4438 34.4944 53.618C35.3786 54.1874 36.2629 54.7564 37.1481 55.3249C37.5794 55.6017 38.0106 55.8786 38.4423 56.1546C38.6262 56.272 38.8194 56.4347 39.0218 56.5213L38.623 55.0084C37.5196 57.1474 35.8164 58.8294 34.1317 60.5183C33.1228 61.5295 34.694 63.0941 35.7038 62.0819C37.514 60.2672 39.3576 58.4221 40.5425 56.1246C40.7903 55.6437 40.7195 54.8577 40.1437 54.6117C39.9505 54.5292 39.7666 54.3744 39.5906 54.262C39.1501 53.9805 38.7101 53.6981 38.27 53.4157C37.3037 52.7952 36.338 52.1741 35.3726 51.5517C35.0928 51.3716 34.8172 51.1698 34.5236 51.0123C34.0358 50.751 33.4716 50.6824 32.9815 50.9832C32.56 51.2421 32.2432 51.7047 31.9083 52.059C31.1852 52.8237 30.3973 53.5254 29.6816 54.2961C29.2828 54.7259 28.9155 55.1406 28.8678 55.7492C28.8298 56.2333 29.0077 56.6908 29.2902 57.0783C29.5802 57.4763 29.9419 57.8025 30.2588 58.1761C30.6548 58.6433 31.0421 59.1155 31.4585 59.5656C32.2904 60.4649 33.1853 61.3024 34.1312 62.0819C34.593 62.4624 35.2513 62.532 35.7038 62.0819C36.098 61.6899 36.168 60.9011 35.7034 60.5183L35.7038 60.5188Z" fill="#211715"/>
<path d="M44.0976 62.2275C44.3556 62.6541 44.6136 63.0812 44.8721 63.5078C45.1565 63.9782 45.9046 64.2656 46.3933 63.9045C49.7015 61.4605 52.8389 58.8432 55.8048 55.998C56.4853 55.3452 57.1574 54.6794 57.7531 53.9474C58.3159 53.2563 58.9972 52.4709 58.931 51.5246C58.8703 50.6576 58.1616 50.0775 57.6479 49.4455C57.0726 48.7364 56.5325 47.9966 56.0327 47.2332C55.6047 46.5795 54.8659 46.5638 54.2869 47.0093C52.2728 48.5595 50.1333 49.9624 47.94 51.2477C45.7596 52.5252 43.4982 53.7134 41.1136 54.5698C40.4545 54.8066 40.0552 55.5423 40.4494 56.1942C41.6658 58.2052 42.8812 60.2161 44.0976 62.2275C44.8341 63.4456 46.7578 62.3353 46.0181 61.1112C44.8017 59.1003 43.5858 57.0894 42.3694 55.0779L41.7051 56.7024C46.8194 54.8646 51.5762 51.8696 55.8595 48.5729L54.1136 48.349C54.5805 49.0622 55.0877 49.7477 55.6116 50.4203C55.8358 50.7082 56.0605 50.9971 56.2967 51.2758C56.4209 51.4223 56.5459 51.5716 56.6784 51.7107C56.7044 51.7384 56.9054 51.9779 56.7511 51.7522C56.6548 51.6112 56.7924 51.5112 56.5969 51.8148C56.4908 51.9793 56.3741 52.1401 56.2541 52.2944C56.0248 52.5888 55.7742 52.8675 55.5204 53.1412C54.9266 53.782 54.2892 54.3809 53.6564 54.983C51.0129 57.5012 48.21 59.8236 45.2719 61.9939L46.793 62.3906C46.535 61.964 46.277 61.5369 46.0186 61.1103C45.2821 59.8922 43.3588 61.0025 44.0986 62.2266L44.0976 62.2275Z" fill="#211715"/>
<path d="M68.9187 103.537C68.9187 94.8224 68.9576 86.1083 68.9581 77.3937C68.9581 76.7962 68.4485 76.288 67.8464 76.288H12.9731C10.3555 76.288 7.73281 76.2415 5.11567 76.288C5.04294 76.2894 4.97022 76.288 4.89796 76.288C4.29718 76.288 3.78625 76.7948 3.78625 77.3937C3.78625 79.1411 3.78625 80.8881 3.78625 82.6355C3.78625 86.3667 3.78625 90.0979 3.78625 93.8286C3.78625 98.3117 3.78625 102.795 3.78625 107.278C3.78625 111.218 3.78625 115.158 3.78625 119.097C3.78625 121.261 3.78625 123.425 3.78625 125.588C3.78625 125.671 3.78625 125.754 3.78625 125.837C3.78625 126.435 4.29579 126.943 4.89796 126.943C11.5983 126.943 18.2991 126.969 24.9994 126.994C32.0365 127.02 39.0741 127.05 46.1112 127.075C48.581 127.084 51.0508 127.094 53.5207 127.094C54.9515 127.094 54.9538 124.882 53.5207 124.882C48.2239 124.882 42.9271 124.852 37.6307 124.832C30.2004 124.802 22.77 124.772 15.3396 124.75C11.8591 124.74 8.37852 124.732 4.8975 124.732L6.0092 125.837C6.0092 123.982 6.0092 122.127 6.0092 120.272C6.0092 116.485 6.0092 112.698 6.0092 108.911C6.0092 104.425 6.0092 99.9384 6.0092 95.4521C6.0092 91.5615 6.0092 87.6714 6.0092 83.7808C6.0092 81.7266 6.10416 79.6465 6.0092 77.5941C6.00596 77.5278 6.0092 77.4605 6.0092 77.3937L4.8975 78.4994H67.8459L66.7342 77.3937C66.7342 86.1083 66.6953 94.8224 66.6948 103.537C66.6948 104.96 68.9182 104.962 68.9182 103.537H68.9187Z" fill="#211715"/>
<path d="M76.293 114.544C76.6209 119.934 77.0198 125.322 77.243 130.718C77.3019 132.136 79.5253 132.144 79.4664 130.718C79.2427 125.322 78.8439 119.935 78.5164 114.544C78.4302 113.13 76.2064 113.12 76.293 114.544Z" fill="#211715"/>
<path d="M78.3552 129.612C71.717 129.825 65.0671 129.751 58.4279 129.649C51.6651 129.545 44.9073 129.312 38.1463 129.129C34.2437 129.024 30.3403 128.935 26.4386 128.803C25.0073 128.755 25.0092 130.966 26.4386 131.014C33.126 131.241 39.8162 131.398 46.5044 131.594C53.6245 131.804 60.7486 131.933 67.8723 131.946C71.3668 131.953 74.8626 131.935 78.3557 131.824C79.7829 131.778 79.7893 129.567 78.3557 129.612H78.3552Z" fill="#211715"/>
<path d="M25.3664 129.615C24.8253 133.097 24.6067 136.62 23.9128 140.081C23.7956 140.666 24.0809 141.275 24.6891 141.441C25.2367 141.59 25.9389 141.257 26.0565 140.669C26.4447 138.732 26.7032 136.771 26.9417 134.812C27.0473 133.944 27.1465 133.076 27.2488 132.209C27.2947 131.821 27.341 131.434 27.3906 131.047C27.4012 130.964 27.4119 130.881 27.423 130.798C27.4471 130.617 27.4249 130.78 27.4392 130.681C27.4619 130.521 27.4855 130.362 27.5101 130.202C27.6018 129.613 27.3596 129.013 26.7338 128.842C26.2071 128.698 25.4585 129.021 25.3664 129.615Z" fill="#211715"/>
<path d="M48.6204 127.864C49.0183 127.001 49.6696 126.33 50.5826 125.879C51.1514 125.683 51.4988 125.558 51.8147 125.043C52.731 123.546 53.8417 121.031 54.2308 120.241C54.5393 119.615 55.0535 119.289 55.6399 118.859C56.0911 118.528 56.924 118.265 57.4844 118.273C59.6564 118.304 61.1609 117.173 61.9841 115.816C62.4811 114.997 63.0425 114.249 63.6952 113.922C64.5419 113.498 66.5731 114.878 68.6163 116.962C69.5617 117.926 71.1019 119.624 71.8263 120.588C69.596 124.61 67.6283 127.928 64.7119 131.275C63.4575 132.714 60.7037 133.783 59.2562 133.629C54.9007 133.167 52.2455 132.851 48.2161 129.27C48.2902 128.757 48.425 128.287 48.6204 127.863V127.864Z" fill="#F0F7FF"/>
<path d="M75.0303 130.999C75.5366 132.958 75.5445 135.107 75.5519 137.198C75.5584 139.01 75.5361 140.845 75.3365 142.649C75.2707 143.243 75.8947 143.754 76.4482 143.754C77.1041 143.754 77.4941 143.245 77.5599 142.649C77.7651 140.794 77.7855 138.907 77.7744 137.044C77.7614 134.849 77.7267 132.549 77.174 130.411C76.8183 129.034 74.6732 129.618 75.0298 130.999H75.0303Z" fill="#211715"/>
<path d="M83.8859 92.4637C78.7031 93.0589 73.4128 93.2147 68.204 92.9253C66.7745 92.8461 66.7787 95.0574 68.204 95.1367C73.4132 95.426 78.7035 95.2703 83.8859 94.6751C84.4821 94.6064 84.9976 94.2157 84.9976 93.5694C84.9976 93.0248 84.4863 92.3946 83.8859 92.4637Z" fill="#211715"/>
<path d="M81.5968 94.3843C81.6718 96.8882 81.4916 99.4602 80.8436 101.889C80.5082 103.146 80.0274 104.191 79.561 105.24C78.0754 108.578 76.4213 111.865 74.5597 115.012C74.108 115.775 73.6416 116.531 73.139 117.262C73.0218 117.432 72.9028 117.601 72.7805 117.768C72.742 117.82 72.7031 117.872 72.6647 117.925C72.6272 117.975 72.5892 118.025 72.5507 118.075C72.6221 117.984 72.6337 117.968 72.585 118.03C72.3956 118.265 72.201 118.494 71.9884 118.71C70.9846 119.725 72.5558 121.29 73.5605 120.273C74.5652 119.256 75.3402 118.002 76.079 116.794C77.0772 115.162 77.9907 113.477 78.8671 111.778C79.7124 110.138 80.5217 108.479 81.2818 106.799C81.8492 105.544 82.4384 104.273 82.8498 102.957C83.6997 100.237 83.9049 97.2134 83.8202 94.3838C83.7776 92.9639 81.5542 92.9584 81.5968 94.3843Z" fill="#211715"/>
<path d="M67.5069 98.3319C67.5791 99.8255 67.4119 101.221 66.9788 102.651C66.6462 103.749 66.3095 104.846 65.9741 105.943C65.2348 108.361 64.5219 110.8 63.627 113.167C63.4158 113.727 63.8619 114.379 64.4033 114.527C65.0268 114.698 65.5591 114.316 65.7707 113.755C66.6837 111.339 67.4096 108.848 68.1637 106.38C68.5065 105.258 68.8613 104.139 69.1902 103.012C69.6362 101.485 69.8067 99.9186 69.7298 98.3315C69.6612 96.9148 67.4374 96.9065 67.5064 98.3315L67.5069 98.3319Z" fill="#211715"/>
<path d="M52.9546 86.9605V115.208C52.9546 116.631 55.178 116.634 55.178 115.208V86.9605C55.178 85.5374 52.9546 85.5351 52.9546 86.9605Z" fill="#211715"/>
<path d="M47.0057 129.67C48.6769 131.201 50.4848 132.553 52.5966 133.415C54.3462 134.129 56.2175 134.394 58.0843 134.607C59.0237 134.715 59.8667 134.793 60.8028 134.602C61.7932 134.401 62.7701 133.999 63.6456 133.5C65.6179 132.377 66.9682 130.36 68.2564 128.552C69.873 126.284 71.2672 123.872 72.6193 121.442C73.3128 120.195 71.3932 119.079 70.6993 120.325C69.5983 122.305 68.4713 124.273 67.2151 126.16C66.6198 127.054 65.9987 127.934 65.3386 128.782C64.7207 129.576 64.0907 130.477 63.287 131.098C62.0387 132.064 60.4179 132.649 58.9129 132.487C57.2324 132.307 55.5431 132.107 53.9358 131.562C51.8902 130.867 50.1509 129.547 48.5778 128.106C47.5268 127.143 45.9505 128.703 47.0057 129.669V129.67Z" fill="#211715"/>
<path d="M72.446 119.59C71.0462 117.823 69.4778 116.078 67.7366 114.638C66.9097 113.954 66.0213 113.274 64.9958 112.915C63.9985 112.565 63.1448 112.825 62.3717 113.516C61.5573 114.243 61.1664 115.29 60.4016 116.047C59.8134 116.629 59.0472 117.012 58.2236 117.132C57.6678 117.212 57.117 117.159 56.5621 117.282C55.9784 117.411 55.417 117.662 54.9344 118.01C54.0737 118.63 53.4711 119.251 53.0208 120.209C52.5599 121.191 52.1032 122.174 51.6043 123.138C51.3635 123.603 51.13 124.216 50.7752 124.607C50.834 124.542 50.6858 124.672 50.6937 124.666C50.8197 124.572 50.5478 124.725 50.5186 124.738C50.4051 124.787 50.0118 124.91 49.8001 124.988C49.2378 125.197 48.8547 125.736 49.0238 126.348C49.1725 126.886 49.8256 127.33 50.3912 127.12C51.3565 126.763 52.1861 126.502 52.7753 125.602C53.3224 124.765 53.7485 123.833 54.1812 122.935C54.5226 122.228 54.8246 121.495 55.1919 120.8C55.575 120.075 56.5065 119.481 57.3199 119.381C57.8067 119.321 58.2917 119.349 58.7823 119.267C59.3418 119.173 59.8782 118.986 60.3891 118.741C61.2419 118.332 61.9673 117.698 62.5394 116.955C62.8488 116.552 63.0864 116.106 63.3875 115.699C63.5348 115.499 63.6951 115.306 63.8808 115.14C63.9628 115.067 64.0309 115.025 64.1194 114.954C64.3769 114.748 64.1101 115.029 64.0689 114.946L64.0022 114.954C64.0624 114.951 64.1221 114.952 64.1819 114.959C64.136 114.946 63.9637 114.914 64.1865 114.977C64.357 115.026 64.3672 115.029 64.495 115.089C64.9541 115.303 65.3862 115.598 65.7883 115.902C67.7046 117.35 69.3902 119.281 70.8753 121.155C71.2472 121.625 72.0583 121.542 72.4474 121.155C72.9134 120.692 72.8203 120.062 72.4474 119.592L72.446 119.59Z" fill="#211715"/>
<path d="M51.5988 47.154C53.0171 45.9415 54.2581 44.5663 55.3647 43.0681C56.0878 42.0891 56.7853 41.0521 57.3153 39.9547C57.5663 39.4341 57.4765 38.7362 56.9164 38.4418C56.4199 38.1806 55.6639 38.2819 55.3952 38.8384C54.882 39.9022 54.2099 40.9074 53.5128 41.8597C53.3882 42.0297 53.2622 42.1988 53.1334 42.3655C53.2186 42.255 53.0852 42.4259 53.0579 42.4604C52.9977 42.536 52.937 42.6116 52.8759 42.6866C52.6021 43.022 52.3186 43.3501 52.0259 43.6693C51.4005 44.3512 50.7307 44.9892 50.0271 45.5904C49.5843 45.9687 49.6074 46.7707 50.0271 47.154C50.4987 47.5843 51.1268 47.5576 51.5988 47.154Z" fill="#211715"/>
<path d="M57.9258 9.05284C60.2868 11.2439 61.663 13.9924 62.4648 17.0741C63.2476 20.0824 63.06 23.2442 62.6579 26.3018C62.4624 27.7867 62.1776 29.3742 61.4184 30.6872C60.7041 31.9233 62.6246 33.0382 63.3384 31.8035C64.8517 29.1853 64.9897 25.89 65.1694 22.9466C65.3964 19.2287 64.6998 15.5404 63.0405 12.1879C62.1651 10.4193 60.9454 8.83263 59.4979 7.48923C58.4524 6.519 56.8771 8.07939 57.9258 9.05284Z" fill="#211715"/>
<path d="M34.5027 43.0492C35.4194 43.5302 36.4908 43.7205 37.5209 43.7048C38.0277 43.697 38.5502 43.6394 39.0393 43.5067C39.61 43.3519 40.1246 43.0479 40.661 42.8078C41.1933 42.5701 41.3614 41.7602 41.0599 41.2949C40.705 40.7476 40.1084 40.6439 39.5387 40.8982C39.3205 40.9959 39.1079 41.1037 38.893 41.2074C38.8411 41.2322 38.7887 41.2562 38.7369 41.2811C38.4923 41.3972 38.8781 41.2364 38.7369 41.2811C38.6512 41.3083 38.5678 41.3405 38.4807 41.3649C38.3927 41.3898 38.3033 41.411 38.2139 41.4299C38.1676 41.4396 38.1213 41.4483 38.0749 41.4561C38.0388 41.4626 37.8697 41.4861 38.0444 41.4635C38.2204 41.4409 38.0458 41.4621 38.0101 41.4654C37.9605 41.4704 37.911 41.4746 37.8614 41.4783C37.7484 41.4866 37.6349 41.4916 37.5214 41.493C37.3167 41.4962 37.1119 41.4893 36.9081 41.4727C36.8572 41.4686 36.8062 41.4631 36.7553 41.4584C36.6038 41.4451 36.7641 41.4552 36.8238 41.47C36.7275 41.446 36.6246 41.4391 36.5274 41.4202C36.3268 41.3811 36.1281 41.3318 35.9335 41.2686C35.89 41.2544 35.8464 41.2396 35.8034 41.224C35.7677 41.2111 35.6185 41.1484 35.7807 41.2193C35.9428 41.2903 35.7978 41.2267 35.7644 41.2101C35.7177 41.1866 35.6709 41.1641 35.6246 41.1396C35.1104 40.8701 34.3924 40.9927 34.1034 41.5363C33.8319 42.0468 33.9533 42.7608 34.5027 43.0492Z" fill="#211715"/>
<path d="M40.8218 32.4351C40.5879 31.5312 40.8635 29.4899 42.569 29.3945C44.8119 29.512 44.8146 31.9956 44.005 33.1257C43.3421 34.0508 41.5055 34.3632 40.8218 32.4351Z" fill="#211715"/>
<path d="M27.4837 32.233C27.2706 31.3268 27.5263 29.2785 29.0878 29.1799C31.1412 29.2951 31.1407 31.7866 30.3977 32.9213C29.7895 33.8505 28.1072 34.1661 27.4837 32.233Z" fill="#211715"/>
<path d="M34.1863 34.2941C33.8922 34.7733 33.6083 35.2612 33.3577 35.7642C33.2043 36.0715 33.0918 36.3498 33.0658 36.6939C33.0353 37.1021 33.2173 37.514 33.5128 37.7918C33.7583 38.0226 34.0298 38.1889 34.3531 38.2879C34.5537 38.3497 34.7686 38.3547 34.9766 38.3787L34.681 38.3391C34.6959 38.3409 34.7107 38.3432 34.7251 38.3455C34.8728 38.3916 35.0206 38.398 35.1683 38.3653C35.3161 38.3589 35.4541 38.3151 35.5815 38.234C35.8122 38.1 36.0322 37.8369 36.0924 37.5734C36.1573 37.2905 36.1434 36.9726 35.9804 36.7216C35.8335 36.4949 35.5954 36.2576 35.3161 36.2134C35.1475 36.1867 34.978 36.1706 34.8089 36.1494L35.1044 36.189C35.0192 36.177 34.9377 36.1567 34.858 36.1236L35.1234 36.2351C35.0576 36.2047 34.9983 36.1678 34.9404 36.1245L35.1656 36.2973C35.1109 36.253 35.059 36.207 35.0136 36.1535L35.1873 36.3774C35.1748 36.3604 35.1642 36.3424 35.1558 36.3231L35.2679 36.587C35.2568 36.5562 35.2503 36.5295 35.2457 36.4967L35.2855 36.7907C35.2837 36.757 35.2851 36.7266 35.2883 36.6935L35.2485 36.9874C35.2601 36.9174 35.2809 36.8515 35.3068 36.7856L35.1947 37.0496C35.4393 36.4797 35.7807 35.9375 36.105 35.4095C36.2536 35.1676 36.2921 34.829 36.2171 34.5577C36.1462 34.3011 35.9465 34.0233 35.7061 33.897C35.1646 33.6123 34.5092 33.7662 34.185 34.2937L34.1863 34.2941Z" fill="#211715"/>
<path d="M55.9266 4.84441C52.7517 2.62845 49.1442 1.24267 45.2644 0.969017C41.8047 0.724847 38.1759 1.21549 34.9163 2.39626C31.8521 3.50608 29.0326 5.25351 26.7916 7.62242C24.3009 10.2553 22.6583 13.6783 21.8848 17.1966C21.0038 21.2052 21.1622 25.5634 21.9746 29.5678C22.0937 30.1533 22.7922 30.4905 23.342 30.3399C23.9549 30.1722 24.2379 29.5673 24.1184 28.9799C22.8399 22.6794 23.3462 15.1051 27.6573 9.97658C31.6715 5.20099 37.8929 3.04492 44.0397 3.13015C47.9834 3.18451 51.59 4.51178 54.8037 6.75492C55.2957 7.09814 56.0396 6.84338 56.3249 6.35826C56.6496 5.80634 56.419 5.18947 55.9261 4.84533L55.9266 4.84441Z" fill="#211715"/>
<path d="M46.189 47.4618C41.8057 49.3976 36.6492 50.2578 32.2135 47.993C30.2532 46.9923 28.449 45.5831 27.2651 43.7149C26.0334 41.7712 25.409 39.5263 25.0569 37.273C24.5692 34.1504 24.4668 30.961 24.0921 27.8222C24.0212 27.2293 23.6316 26.7166 22.9804 26.7166C22.4342 26.7166 21.7973 27.2252 21.8687 27.8222C22.2337 30.8813 22.3888 33.9661 22.7932 37.0191C23.1332 39.5848 23.7766 42.1439 25.0856 44.4032C27.6796 48.8794 32.9083 51.5417 38.0291 51.5652C41.2795 51.58 44.3635 50.6733 47.3109 49.3714C47.8598 49.129 47.9891 48.333 47.7098 47.8584C47.379 47.2959 46.7403 47.2185 46.189 47.4618Z" fill="#211715"/>
<path d="M58.6549 30.3183C59.2237 29.9516 59.856 29.9207 60.4633 30.1649C60.7482 30.2796 60.8403 30.3717 60.9927 30.5196C61.078 30.6187 61.0812 30.6164 61.002 30.5132C61.0363 30.5592 61.0687 30.6062 61.0993 30.6546C61.1382 30.7209 61.1762 30.7864 61.2123 30.8541C61.2558 30.9467 61.2531 30.9356 61.2035 30.8218C61.2336 30.8992 61.2605 30.9776 61.2846 31.0573C61.3351 31.2236 61.3763 31.3963 61.4004 31.5686C61.4268 31.7594 61.4323 32.1413 61.4226 32.408C61.3976 33.118 61.247 33.8182 61.0052 34.4858C60.6305 35.5205 59.8454 36.6907 58.9064 37.3928C58.7471 37.5121 58.5766 37.6245 58.4029 37.7213C58.3636 37.7434 58.0472 37.8913 58.2644 37.801C57.9833 37.9175 57.685 38.0004 57.3876 38.0654C56.8503 38.1833 56.1638 38.246 55.6445 38.0009C55.1026 37.7452 54.4448 37.8512 54.1233 38.3976C53.8403 38.879 53.9774 39.6534 54.5222 39.9105C55.9095 40.5651 57.5455 40.4656 58.9495 39.8944C60.3651 39.318 61.4884 38.1492 62.2731 36.8662C63.0434 35.6062 63.4964 34.249 63.6229 32.778C63.7354 31.4659 63.5325 30.0456 62.6311 29.0283C61.4036 27.6435 59.0579 27.4251 57.5326 28.4082C56.3361 29.1795 57.4492 31.095 58.6549 30.3183Z" fill="#211715"/>
<path d="M39.1917 55.5774C38.8434 59.9572 38.6599 64.3085 38.6447 68.7022C38.6396 70.1253 40.863 70.1271 40.8681 68.7022C40.8829 64.3085 41.0663 59.9572 41.4151 55.5774C41.4624 54.9812 40.8704 54.4717 40.3034 54.4717C39.6623 54.4717 39.2394 54.9798 39.1917 55.5774Z" fill="#211715"/>
<path d="M62.2434 35.0675C63.7743 35.559 65.1445 36.5578 66.0737 37.8671C67.159 39.3957 67.5281 41.1459 67.5027 42.9965C67.4475 47.0221 66.0704 51.3416 68.4374 55.0134C69.2073 56.2075 71.1328 55.1 70.3574 53.8971C67.9853 50.2175 70.0679 45.5143 69.6686 41.4924C69.2754 37.5345 66.6703 34.1663 62.8344 32.9349C61.4693 32.4968 60.8848 34.6312 62.2434 35.0675Z" fill="#211715"/>
<path d="M43.6478 15.1768C44.7423 17.7636 46.1922 20.2062 47.8672 22.4627C49.4407 24.5829 51.3241 26.9297 53.7888 28.0621C54.3336 28.3122 54.9862 28.2155 55.31 27.6654C55.5907 27.1881 55.4587 26.404 54.9112 26.1525C52.748 25.1587 51.0763 23.1022 49.6871 21.2115C48.196 19.1816 46.7184 16.7786 45.7915 14.589C45.559 14.0389 45.0564 13.6436 44.4241 13.8168C43.903 13.9592 43.4134 14.623 43.6478 15.1768Z" fill="#211715"/>
<path d="M43.9341 14.1011C41.9738 16.3944 39.3071 18.0396 36.7224 19.5645C33.6638 21.37 30.4616 22.9774 27.1691 24.318C25.6424 24.9395 24.0897 25.5144 22.4967 25.9443C21.1173 26.3165 21.7028 28.4505 23.0878 28.0768C26.27 27.2185 29.3388 25.8623 32.2973 24.4327C35.5926 22.8405 38.8369 21.0572 41.7996 18.9053C43.1244 17.9429 44.4395 16.9123 45.5062 15.6642C45.8949 15.2095 45.9551 14.547 45.5062 14.1006C45.1079 13.7044 44.3246 13.6436 43.9341 14.1006V14.1011Z" fill="#211715"/>
<path d="M49.4195 128.92C49.4783 128.702 49.5506 128.489 49.6381 128.281L49.526 128.545C49.6668 128.217 49.8447 127.909 50.062 127.625L49.8883 127.849C50.0999 127.579 50.3431 127.338 50.615 127.127L50.3899 127.3C50.5909 127.147 50.8031 127.012 51.0259 126.893C51.5391 126.619 51.742 125.869 51.4247 125.38C51.0889 124.862 50.4524 124.69 49.9035 124.983C48.5876 125.686 47.6621 126.904 47.2748 128.332C47.1993 128.61 47.2405 128.935 47.3869 129.184C47.5217 129.413 47.7862 129.632 48.0512 129.692C48.6362 129.824 49.2564 129.517 49.4186 128.92L49.4195 128.92Z" fill="#211715"/>
</g>
<defs>
<clipPath id="clip0_234_6450">
<rect width="85" height="142.847" fill="white" transform="translate(0 0.907715)"/>
</clipPath>
</defs>
</svg>
