<?xml version="1.0" encoding="UTF-8"?><svg id="b" xmlns="http://www.w3.org/2000/svg" width="383.217" height="278.57" viewBox="0 0 383.217 278.57"><defs><style>.e{fill:#fff;}.f{fill:#211715;}.g{fill:#645d5c;}.h{fill:#febe69;}</style></defs><g id="c"><g id="d"><path class="e" d="M337.63,167.749c1.518-1.031,6.109-4.15,9.642-6.55,17.695,3.865,30.734,14.24,33.25,30.49,1.644,23.704-3.543,46.547-15.588,67.377-2.797,4.837-6.038,8.887-10.628,12.11-4.655,3.268-11.157,5.609-16.926,4.901-5.344-.657-10.111-3.671-13.606-7.541-3.607-3.994-6.277-8.481-8.309-13.205-.296-.689-.586-1.381-.868-2.076-20.723,0-53.926,0-53.926,0-2.459-5.861-6.8-13.118-12.477-19.845-4.165-4.935-12.132-9.363-20.583-12.653l-3.726-.656c-.36-.161-4.992-2.359-5.228-2.434-3.551-1.962-4.296-4.979-4.756-7.649-.087-.508-.161-.955-.209-1.347,8.669-4.054,15.564-15.122,16.796-18.243.229-.648.74-1.978,1.125-3.502,2.092.873,3.438.319,4.778-.75,1.567-1.267,2.695-2.932,3.56-4.672,1.491-2.998,2.275-6.294,2.274-9.594,2.843-2.332,5.918-4.405,9.016-6.388,1.969-1.263,5.056-2.586,8.813-3.945,19.548,10.353,29.475,13.479,47.547,13.08,17.559-.388,23.492-3.239,29.519-6.56,0,0,.184-.125.512-.348Z"/><path class="e" d="M145.102,71.964c1.422-1.281,3.297-1.72,4.886-1.613,3.458.233,4.87,2.153,5.469,3.272,1.787,3.342,1.512,9.386.122,13.086-.984,2.62-2.588,6.626-6.233,9.418-1.502,1.15-3.681,1.87-5.73,1.456,0,0-.195-.039-.542-.109-.723,2.138-1.598,4.228-2.124,5.239-1.559,3.845-9.875,17.174-20.045,22.285-.354,2.319-.433,4.325-.43,6.623.01,2.73.475,5.374,3.172,7.132.126.069,2.356,1.489,5.657,3.246-20.369,14.493-50.319,10.235-66.337-4.404,4.098-1.56,9.57-3.674,9.742-3.723,3.017-1.124,4.05-3.602,4.658-6.264.415-1.835.733-3.491.921-5.309-3.316-2.268-6.368-5.286-9.282-9.01-4.92-6.289-7.621-12.979-9.055-18.496-2.213.496-4.56-.396-6.093-1.734-3.458-3.02-4.802-7.12-5.616-9.799-1.15-3.782-1.035-9.83.962-13.051.669-1.079,2.202-2.904,5.667-2.915,1.592-.005,3.435.553,4.772,1.923,0,0-6.804-34.601,47.418-34.601,48.889,0,38.039,37.347,38.039,37.347Z"/><path class="f" d="M132.247,140.828c-1.828-.931-3.63-1.912-5.401-2.95-.506-.296-1.008-.597-1.508-.903-.123-.075-.248-.15-.37-.227-.088-.056-.447-.295-.253-.148-.193-.146-.372-.319-.542-.492-.037-.038-.432-.483-.27-.282.127.157-.216-.329-.26-.402-.094-.158-.176-.32-.262-.483-.252-.477.05.242-.087-.232-.061-.21-.13-.414-.183-.627s-.093-.428-.135-.643c-.102-.516.006.337-.031-.241-.138-2.16-.073-4.337.139-6.491.127-1.292-1.194-2.4-2.4-2.4-1.404,0-2.272,1.105-2.4,2.4-.424,4.309-.792,9.714,2.666,12.962.934.877,2.049,1.512,3.145,2.16,1.876,1.109,3.788,2.155,5.729,3.143,1.155.588,2.603.303,3.284-.861.626-1.071.298-2.693-.861-3.284h0Z"/><path class="e" d="M45.246,256.6c-1.93,1.485-3.987,2.807-6.202,3.893-6.363,3.118-14.28,4.021-20.651.919-7.346-3.578-11.11-11.496-13.125-19.105-3.855-14.556-3.292-29.852-1.399-44.754,1.655-13.031,4.596-26.557,13.372-36.689,7.888-9.107,30.021-18.922,45.59-23.413,16.242,15.015,47.083,19.236,67.524,3.784,13.08,3.088,22.848,6.188,32.478,13.807,2.411,1.907,5.024,5.024,7.214,9.211,1.661,3.175,2.995,8.359,3.865,11.659,3.538,13.418,5.604,25.276,7.026,38.71-.688,1.138-1.699,2.192-3.234,3.046-.261.075-4.868,2.272-5.253,2.434-8.645,3.29-20.315,8.374-24.576,13.308-5.808,6.727-8.04,11.859-11.026,20.504,0,0-66.636,0-88.42.002-1.024.939-2.084,1.838-3.184,2.685Z"/><path class="e" d="M251.275,96.973c.196-1.658.616-3.198,1.297-4.369.113-.194.253-.413.427-.641.773-1.014,2.218-2.222,4.929-2.307,1.527-.048,3.309.437,4.628,1.715,0,0-5.48-37.541,39.52-37.541,47.815,0,42.504,37.86,42.504,37.86,1.329-1.267,3.115-1.738,4.642-1.679,3.322.13,4.729,1.933,5.333,2.99,1.804,3.156,1.704,8.959.471,12.545-.873,2.539-2.302,6.424-5.722,9.2-1.409,1.144-3.48,1.893-5.455,1.552,0,0-.189-.033-.522-.09-.635,2.07-1.418,4.098-1.895,5.082-1.362,3.654-8.699,16.214-18.038,21.59,1.422,3.772,3.476,9.218,3.476,9.218,2.781,4.51,12.01,8.078,19.089,10.991-3.777,2.138-8.841,5.008-8.841,5.008-6.027,3.321-11.96,6.172-29.519,6.56-18.051.399-27.975-2.72-47.473-13.046,8.88-3.236,17.934-5.48,22.209-8.347.47-.315,1.035-.535,1.328-1.018.194-.32.264-.699.329-1.068.447-2.504.893-5.008,1.337-7.505-4.599-2.122-8.704-5.59-12.601-10.292-4.889-5.898-7.66-12.24-9.183-17.49-2.109.533-4.384-.258-5.89-1.501-3.398-2.803-4.797-6.698-5.651-9.244-.756-2.256-1.059-5.381-.728-8.173Z"/><path class="f" d="M238.545,178.732c4.103-4.592,9.254-8.456,14.571-11.543,4.999-2.902,10.858-4.495,16.336-6.207,2.939-.919,1.684-5.554-1.276-4.629-5.866,1.834-12.132,3.585-17.483,6.691-5.643,3.275-11.188,7.421-15.543,12.293-2.053,2.297,1.331,5.703,3.394,3.394h0Z"/><path class="f" d="M125.35,142.54c12.676,2.88,26.455,5.977,36.515,14.806,2.602,2.283,4.624,5.191,6.186,8.264,1.504,2.96,2.317,6.299,3.166,9.493,1.97,7.411,3.674,14.884,4.978,22.442,1.528,8.855,2.508,17.788,3.241,26.741.106,1.292,1.027,2.4,2.4,2.4,1.217,0,2.506-1.101,2.4-2.4-1.356-16.559-3.782-32.932-8.009-49.013-.879-3.344-1.745-6.717-3.063-9.921-1.461-3.553-3.581-6.87-6.179-9.703-2.309-2.517-5.228-4.529-8.107-6.34-2.804-1.765-5.758-3.257-8.808-4.546-7.525-3.181-15.502-5.047-23.445-6.852-3.008-.683-4.292,3.943-1.276,4.629h0Z"/><path class="h" d="M143.254,239.549c-2.693,4.234-4.374,8.488-6.404,14.364h124.094c-2.403-5.967-6.857-13.522-12.75-20.504-4.477-5.304-13.347-10.023-22.489-13.373-3.32,5.317-13.106,10.05-23.052,10.652-5.593.339-11.254,0-16.741-1.141-5.923-1.231-11.723-3.904-15.566-8.633-8.342,3.28-18.548,7.95-22.471,12.494-1.86,2.154-3.353,4.145-4.622,6.14Z"/><path class="e" d="M233.394,165.939c1.12-1.011,2.78-1.499,4.332-1.267,1.552.232,2.965,1.168,3.676,2.444.502.895.664,1.913.757,2.907.34,3.918-.432,7.911-2.208,11.481-.865,1.74-1.992,3.405-3.56,4.672-1.34,1.069-2.686,1.623-4.775.751-.387,1.522-.899,2.853-1.127,3.501-1.232,3.121-8.127,14.189-16.796,18.243.048.393.123.839.21,1.347.459,2.67,1.204,5.687,4.756,7.649.236.075,4.868,2.272,5.228,2.434l1.376.617c-.156.196-.313.391-.313.391-3.889,4.867-13.021,9.018-22.294,9.58-5.593.339-11.254,0-16.741-1.141s-10.867-3.518-14.686-7.619c0,0-.44-.473-.88-.945l2.105-.883c.385-.161,4.992-2.359,5.253-2.434,3.527-1.962,4.284-4.979,4.743-7.649.037-.161.062-.31.087-.471-4.457-1.853-8.565-5.022-12.146-9.022-3.946-4.408-6.332-9.128-7.743-13.188-1.798.585-3.028.038-4.252-.939-1.567-1.267-2.695-2.932-3.56-4.672-1.776-3.57-2.548-7.563-2.208-11.481.093-.994.255-2.013.757-2.907.71-1.276,2.123-2.212,3.676-2.444s3.212.257,4.332,1.267c0,0-6.635-29.035,34.034-29.035s37.97,28.813,37.97,28.813Z"/><path class="g" d="M252.09,142.079c-2.98-3.061-3.977-5.844-4.939-10.215-.8-3.664-1.496-6.076-2.875-9.566-.893-2.261-2.632-4.418-4.035-5.67-4.8-4.278-9.032-5.855-15.027-5.009-4.661.661-8.951,2.586-10.876,6.713l.004.007c-1.002-.449-2.022-.858-3.057-1.223-4.609-1.626-9.478-2.353-14.348-2.353-9.613,0-17.775,2.796-24.307,7.481-7.585,5.44-16.173,15.13-16.86,30.815-.213,4.866,1.065,12.911,1.02,11.895.087-.03.177-.046.267-.059,1.552-.232,3.212.257,4.332,1.267,0,0,.499.45,1.221,1.102,1.135-4.752,4.522-8.931,8.962-10.985.128-.059.256-.116.385-.172,6.569.005,23.467.005,23.467.005,2.687-.52,5.486-1.41,6.179-1.802,3.276-1.854,6.268-4.423,8.404-7.502,5.834.531,10.967,3.875,14.503,8.381,2.49,3.174,4.212,6.907,5.288,10.798,1.938-.019,3.596-.046,3.596-.046,1.032-.932,2.524-1.42,3.967-1.309.586-3.417.941-7.166.748-11.572-.173-3.939-.884-7.835-2.132-11.543l1.806.737c4.36,1.82,8.986,1.496,14.308-.174Z"/><path class="f" d="M180.134,209.546c0,.034.126-.699.046-.4-.026.096-.04.197-.058.295-.023.122-.043.245-.066.367-.054.29-.111.58-.176.867-.129.572-.284,1.138-.486,1.688-.034.092-.241.61-.076.209.157-.381-.032.056-.074.143-.141.289-.297.57-.469.841-.088.139-.184.273-.277.409-.24.353.307-.354.02-.03-.234.265-.471.524-.731.764-.137.126-.281.242-.423.363-.199.169.152-.125.16-.125-.043,0-.169.121-.207.146-.166.115-.352.209-.512.331-.334.255.198-.046.218-.045-.286-.003-.859.364-1.168.505-.835.382-1.666.775-2.497,1.166-.704.331-1.403.683-2.118.989-.513.219-.962.924-1.103,1.434-.158.574-.087,1.339.242,1.849.33.512.822.964,1.434,1.103.672.153,1.222.026,1.849-.242,1.536-.657,3.027-1.426,4.545-2.123.143-.065.286-.13.429-.195.449-.204-.59.287-.301.127.485-.268.947-.439,1.405-.756s.907-.66,1.325-1.03c1.275-1.129,2.149-2.566,2.788-4.125.266-.648.469-1.315.628-1.997.184-.79.453-1.723.453-2.53,0-1.255-1.104-2.458-2.4-2.4s-2.4,1.055-2.4,2.4h0Z"/><path class="f" d="M211.29,208.664c.423,3.22,1.079,6.392,3.33,8.877.61.674,1.343,1.251,2.097,1.755.413.276.843.531,1.316.69.163.055-.726-.321-.447-.189.064.03.129.058.194.087.858.387,1.708.792,2.56,1.193.778.366,1.551.742,2.335,1.096,1.141.516,2.635.366,3.284-.861.555-1.051.36-2.731-.861-3.284-1.49-.674-2.959-1.397-4.444-2.083-.237-.109-.474-.218-.713-.323-.206-.09-.412-.209-.631-.265.047.012.521.282.308.093-.066-.058-.169-.101-.244-.148-.156-.098-.306-.203-.458-.306-.046-.031-.291-.214-.041-.024.258.196-.046-.043-.094-.083-.271-.231-.527-.478-.766-.742-.1-.111-.191-.264-.305-.358.004.003.275.395.143.181-.052-.085-.117-.165-.173-.248-.178-.265-.34-.541-.487-.825-.066-.128-.125-.26-.189-.389-.174-.354.176.483-.004-.018-.228-.632-.414-1.272-.557-1.929-.067-.306-.125-.613-.18-.921-.041-.227-.079-.454-.117-.681-.026-.16-.141-.956-.054-.294-.087-.662-.21-1.205-.703-1.697-.416-.416-1.099-.73-1.697-.703-1.16.052-2.575,1.067-2.4,2.4h0Z"/><path class="f" d="M216.411,119.544c1.441-2.952,4.166-4.45,7.269-5.199,3.186-.769,6.631-.837,9.684.485,3.089,1.338,6.058,3.784,7.817,6.66,2.063,3.372,2.882,7.609,3.747,11.417.94,4.139,2.504,7.77,5.466,10.869l1.059-4.011c-4.356,1.339-8.706,1.915-13.032.174-1.203-.484-2.637.528-2.952,1.676-.376,1.37.469,2.466,1.676,2.952,5.045,2.03,10.506,1.387,15.584-.174,1.741-.535,2.328-2.684,1.059-4.011-2.752-2.878-3.657-6.254-4.52-10.047-.963-4.231-2.152-8.912-4.745-12.461-2.475-3.386-6.018-6.127-9.911-7.688-3.756-1.505-7.951-1.423-11.851-.552-4.347.97-8.485,3.372-10.494,7.488-.568,1.164-.316,2.595.861,3.284,1.055.617,2.713.309,3.284-.861h0Z"/><path class="f" d="M235.091,167.636c1.238-1.036,3.443-.766,4.238.691.487.892.481,2.081.502,3.07.026,1.226-.041,2.459-.262,3.666-.442,2.414-1.274,4.748-2.584,6.829-.897,1.425-2.371,3.409-4.118,2.943-2.988-.797-4.263,3.832-1.276,4.629,3.922,1.046,6.993-1.485,9.131-4.535,2.127-3.034,3.297-6.747,3.743-10.395.421-3.447.423-7.828-2.37-10.335-3.009-2.701-7.382-2.477-10.397.044-.995.832-.859,2.535,0,3.394.985.985,2.397.834,3.394,0h0Z"/><path class="f" d="M163.087,164.464c-3.013-2.52-7.39-2.743-10.397-.044-2.791,2.506-2.79,6.891-2.37,10.335.446,3.648,1.616,7.361,3.743,10.395,2.14,3.052,5.205,5.582,9.131,4.535,2.982-.795,1.717-5.427-1.276-4.629-1.744.465-3.22-1.519-4.118-2.943-1.311-2.08-2.142-4.417-2.584-6.829-.209-1.142-.281-2.309-.266-3.469.013-1.046-.014-2.323.506-3.266.801-1.453,2.994-1.731,4.238-.691.994.831,2.42.974,3.394,0,.854-.854.999-2.559,0-3.394h0Z"/><path class="f" d="M229.68,184.335c-.28,1.893-.886,3.656-1.507,5.455-.132.381.284-.531.049-.12-.097.17-.169.361-.256.536-.188.378-.388.749-.594,1.117-1.147,2.049-2.508,4.059-3.94,5.867-3.569,4.506-8.178,9.121-13.984,10.39-3.016.659-1.74,5.288,1.276,4.629,6.594-1.441,12.022-6.495,16.102-11.624,3.528-4.435,6.639-9.254,7.483-14.973.189-1.281-.319-2.579-1.676-2.952-1.131-.311-2.762.386-2.952,1.676h0Z"/><path class="f" d="M159.384,184.823c1.774,6.863,5.294,13.198,10.173,18.339s11.19,9.33,18.323,10.337c1.282.181,2.578-.313,2.952-1.676.309-1.124-.385-2.77-1.676-2.952-12.594-1.777-22.105-13.569-25.144-25.323-.773-2.988-5.403-1.722-4.629,1.276h0Z"/><path class="f" d="M239.721,165.003c1.828-11.185.709-23.058-5.503-32.791-5.808-9.1-15.229-15.774-25.682-18.434-10.68-2.718-22.519-1.612-32.336,3.463-7.314,3.781-13.682,9.895-17.685,17.093-2.677,4.814-4.25,10.086-4.889,15.544-.59,5.03-.103,10.147.707,15.129.208,1.28,1.799,1.993,2.952,1.676,1.361-.374,1.885-1.668,1.676-2.952-1.283-7.888-1.138-16.678,2.371-24.349,3.003-6.566,8.051-12.191,13.89-16.01,8.105-5.3,18.104-7.137,27.65-5.833,9.744,1.331,18.733,6.399,24.944,13.957,7.357,8.954,9.102,21.057,7.275,32.232-.209,1.278.333,2.583,1.676,2.952,1.146.315,2.742-.39,2.952-1.676h0Z"/><path class="f" d="M262.743,252.043c-3.181-7.511-7.83-14.772-13.289-20.831-5.514-6.119-13.683-9.821-21.205-12.77-1.207-.473-2.634.52-2.952,1.676-.374,1.361.465,2.477,1.676,2.952,6.86,2.689,14.358,6.136,19.309,11.785,5.054,5.767,9.327,12.548,12.317,19.61.506,1.194,2.267,1.456,3.284.861,1.236-.723,1.369-2.085.861-3.284h0Z"/><path class="f" d="M139.164,254.551c2.112-6.101,4.519-11.983,8.501-17.131,1.728-2.234,3.563-4.12,5.915-5.685,2.801-1.864,5.81-3.412,8.85-4.843,3.489-1.642,7.057-3.103,10.658-4.477,1.21-.462,2.043-1.617,1.676-2.952-.318-1.159-1.735-2.141-2.952-1.676-6.818,2.601-13.747,5.4-19.926,9.329-5.601,3.562-9.723,8.898-12.734,14.767-1.872,3.649-3.278,7.523-4.618,11.392-1.013,2.925,3.622,4.182,4.629,1.276h0Z"/><path class="f" d="M213.724,150.064c3.57,1.268,6.673,3.723,8.99,6.697,1.208,1.551,2.206,3.287,3.039,5.064.388.827.723,1.674,1.025,2.537.185.529.357,1.062.516,1.599.064.215.126.43.185.646.045.162.089.324.131.486.117.526.173.208.169-.953l.861-.861-.12.08,1.211-.328-.155-.014c-1.293-.115-2.4,1.185-2.4,2.4,0,1.394,1.103,2.285,2.4,2.4,1.996.177,3.039-1.948,2.732-3.644-.228-1.262-.684-2.519-1.13-3.72-.949-2.552-2.142-5.024-3.699-7.262-3.102-4.46-7.337-7.93-12.479-9.756-1.222-.434-2.627.491-2.952,1.676-.365,1.328.45,2.517,1.676,2.952h0Z"/><path class="f" d="M210.807,138.513c-.63,4.097-2.636,7.383-5.615,10.206-1.517,1.438-2.949,2.384-4.8,3.517-.138.085-.499.188.088-.019-.182.064-.361.14-.544.205-.478.17-.963.322-1.449.466-1.219.361-2.455.661-3.701.909-1.272.253-2.002,1.768-1.676,2.952.364,1.326,1.677,1.93,2.952,1.676,2.251-.447,4.702-.968,6.752-2.044,2.094-1.099,4.061-2.647,5.771-4.268,3.449-3.269,6.12-7.58,6.85-12.324.197-1.28-.324-2.581-1.676-2.952-1.137-.312-2.754.387-2.952,1.676h0Z"/><path class="f" d="M191.88,138.568c-1.755,3.543-3.976,7-6.868,9.728-2.829,2.669-6.548,3.305-10.168,4.304-3.677,1.015-7.073,2.625-9.751,5.405-2.51,2.605-4.293,5.915-4.978,9.473-.245,1.272.357,2.59,1.676,2.952,1.175.323,2.706-.397,2.952-1.676.632-3.283,2.271-6.189,4.817-8.372,2.676-2.295,6.064-3.012,9.382-3.891,3.832-1.015,7.248-2.514,10.059-5.387,2.865-2.928,5.21-6.452,7.024-10.113.575-1.161.312-2.598-.861-3.284-1.06-.62-2.706-.305-3.284.861h0Z"/><path class="f" d="M169.53,223.625c5.772,6.079,13.991,8.342,22.078,9.218,8.643.936,17.4.247,25.422-3.258,3.565-1.558,7.125-3.736,9.614-6.779.82-1.002.981-2.413,0-3.394-.846-.846-2.569-1.008-3.394,0-4.109,5.024-11.082,7.472-17.284,8.51-3.916.656-8.013.61-11.963.334-3.893-.272-7.815-.876-11.524-2.119-3.608-1.209-6.925-3.138-9.555-5.906-2.131-2.245-5.522,1.153-3.394,3.394h0Z"/><path class="f" d="M341.798,112.562c-.627,2.978-1.733,5.782-2.812,8.425.303-.742-.145.302-.249.52-.203.423-.418.841-.638,1.256-.508.956-1.052,1.893-1.618,2.815-2.966,4.828-6.578,9.383-10.99,12.969-2.402,1.952-5.099,3.479-8.096,4.162s-1.736,5.316,1.276,4.629c6.278-1.432,11.526-5.977,15.643-10.725,3.411-3.934,6.605-8.367,8.775-13.125.123-.27.239-.543.354-.816.011-.027.371-.875.206-.498-.148.339.014-.016.039-.07.116-.251.22-.509.327-.764.2-.477.395-.955.579-1.439.749-1.973,1.398-3.996,1.833-6.063.634-3.014-3.992-4.302-4.629-1.276h0Z"/><path class="h" d="M332.321,33.18c-2.821-1.951-5.844-3.617-9.009-4.947-6.186-2.61-12.92-3.921-19.748-3.577-22.613-1.331-44.257,15.598-48.705,37.022-1.209,5.781-.743,14.723-.09,19.418.387,2.782,1.238,6.571,2.544,8.606.197-.025.403-.038.616-.045,1.527-.048,3.309.437,4.628,1.715l4.7-6.957c2.995-2.027,6.561-3.564,11.251-5.499,1.268-.474,2.277-.952,3.362-1.621-.021.385-.034.64-.034.64-.11.888.102,1.842.924,2.271.823.429,2.221.413,3.158.427,3.406.052,6.529-.273,11.105-2.672.442-.263.853-.527,1.237-.799h17.714c2.643-1.845,5.468-5.615,6.381-7.38,1.704-3.295,2.878-5.845,3.535-9.792,2.062,0,3.809,0,3.809,0,.716,5.788,3.048,11.242,5.544,16.512,1.501,3.169,3.345,6.565,6.61,7.843l2.728,7.348c1.329-1.267,3.115-1.738,4.642-1.679,1.002.039,1.83.231,2.511.512,3.281-8.248,1.599-21.69.231-28.468-.69-3.46-1.834-6.807-3.36-9.984-2.628-5.504-5.567-9.584-10.136-13.753l-6.149-5.139Z"/><path class="f" d="M260.427,113.376c1.837,8.242,5.675,15.946,11.162,22.364,5.307,6.208,12.159,11.147,20.379,12.401,1.28.195,2.581-.323,2.952-1.676.312-1.136-.387-2.756-1.676-2.952-7.505-1.146-13.415-5.498-18.261-11.167-4.952-5.793-8.274-12.828-9.927-20.246-.672-3.014-5.3-1.738-4.629,1.276h0Z"/><path class="f" d="M333.532,31.107c-8.35-5.722-18.405-9.084-28.573-8.899-4.198.076-8.264.02-12.423.78-3.957.724-7.775,1.994-11.44,3.644-14.163,6.375-26.217,19.94-28.762,35.548-.758,4.648-.749,9.411-.44,14.099.307,4.645.867,9.416,2.826,13.687.54,1.178,2.244,1.469,3.284.861,1.21-.708,1.403-2.101.861-3.284-.825-1.798-1.237-3.831-1.575-5.77-.252-1.444-.403-2.92-.533-4.622-.297-3.88-.379-7.807-.034-11.686.629-7.071,3.714-13.855,7.87-19.539,8.49-11.612,22.709-19.168,37.161-18.939,2.455.039,4.916-.045,7.368.148,2.612.206,5.192.692,7.718,1.386,5.122,1.407,9.896,3.732,14.272,6.73,2.555,1.75,4.958-2.407,2.423-4.145h0Z"/><path class="f" d="M353.859,91.618c2.809-6.687,2.473-14.685,1.705-21.75-.357-3.28-.821-6.583-1.578-9.798-1.044-4.437-2.85-8.713-5.111-12.665-2.312-4.042-5.287-7.635-8.709-10.783-2.27-2.088-5.674,1.297-3.394,3.394,5.813,5.346,10.068,12.139,12.185,19.773,1.743,6.283,2.413,13.103,2.259,19.605-.088,3.728-.531,7.484-1.987,10.948-.502,1.196.541,2.64,1.676,2.952,1.385.381,2.448-.476,2.952-1.676h0Z"/><path class="f" d="M327.299,59.987c.743,5.674,2.727,10.923,5.111,16.096,2,4.34,4.169,8.632,8.806,10.573,1.196.501,2.64-.54,2.952-1.676.38-1.384-.476-2.45-1.676-2.952-3.241-1.357-4.791-5.855-6.125-8.776-1.921-4.206-3.663-8.651-4.268-13.265-.168-1.285-.983-2.4-2.4-2.4-1.166,0-2.57,1.106-2.4,2.4h0Z"/><path class="f" d="M264.254,89.674c-2.786-2.518-6.798-3.112-10.216-1.533-2.527,1.167-4.029,3.561-4.709,6.188-1.557,6.016-.048,12.973,3.398,18.094,2.314,3.439,5.946,6.529,10.37,5.961,1.285-.165,2.4-.985,2.4-2.4,0-1.169-1.105-2.566-2.4-2.4-3.401.437-5.687-2.399-7.15-5.124-1.2-2.234-2.115-4.808-2.328-7.344s-.189-5.574,1.309-7.745c-.304.44.15-.162.238-.251.07-.071.564-.469.392-.35.445-.309.915-.49,1.442-.605,1.358-.296,2.813-.044,3.86.903,2.287,2.067,5.691-1.317,3.394-3.394h0Z"/><path class="f" d="M324.798,153.309c2.057,3.234,5.586,5.316,8.919,7.02,3.925,2.006,8.045,3.605,12.116,5.286,1.199.495,2.639-.536,2.952-1.676.379-1.379-.473-2.455-1.676-2.952-3.603-1.488-7.217-2.908-10.702-4.666-1.638-.827-3.251-1.723-4.75-2.784-.637-.45-.932-.681-1.6-1.329-.24-.233-.466-.477-.688-.727-.126-.141-.288-.371-.086-.091-.118-.164-.231-.332-.339-.503-.695-1.093-2.135-1.533-3.284-.861-1.089.637-1.559,2.185-.861,3.284h0Z"/><path class="f" d="M269.453,160.982c4.12-1.344,8.35-2.613,12.231-4.574,1.798-.908,3.905-1.98,4.506-4.04.31-1.063.415-2.226.609-3.315.219-1.228.438-2.456.657-3.684.227-1.275-.345-2.587-1.676-2.952-1.161-.319-2.724.393-2.952,1.676-.383,2.149-.739,4.304-1.15,6.447-.008.044-.098.554-.117.552-.006,0,.172-.324.19-.281.004.01-.852.529-.948.589-.625.394-1.28.741-1.945,1.062-1.476.714-2.815,1.215-4.571,1.84-2.024.721-4.069,1.384-6.111,2.051-1.232.402-2.031,1.661-1.676,2.952.332,1.208,1.715,2.08,2.952,1.676h0Z"/><path class="f" d="M268.505,168.529c5.119,2.413,10.369,4.612,15.838,6.1,5.077,1.382,10.322,2.109,15.573,2.354,5.796.271,11.661.102,17.433-.491,4.077-.419,8.166-1.055,12.075-2.32,3.111-1.007,6.047-2.431,8.906-4.004,2.707-1.49.288-5.636-2.423-4.145-1.125.619-2.256,1.227-3.413,1.784-.544.262-1.093.513-1.649.751.477-.204-.449.179-.594.236-.374.146-.751.286-1.13.42-3.336,1.179-6.84,1.9-10.35,2.32-10.234,1.224-21.094,1.374-31.17-1.028-5.785-1.379-11.306-3.592-16.674-6.122-1.172-.552-2.589-.327-3.284.861-.61,1.043-.317,2.729.861,3.284h0Z"/><path class="f" d="M317.185,79.232c3.894-2.803,6.696-6.791,8.658-11.118,2.07-4.564,2.813-9.296,3.013-14.284.124-3.089-4.676-3.083-4.8,0-.093,2.316-.254,4.632-.743,6.902-.37,1.719-1.007,3.619-1.614,4.959-1.598,3.523-3.735,7.093-6.936,9.396-1.051.756-1.559,2.09-.861,3.284.607,1.038,2.226,1.622,3.284.861h0Z"/><path class="f" d="M279.436,77.933c-.152,1.985.798,3.848,2.694,4.591,1.563.613,3.397.54,5.056.505,3.451-.073,6.68-.916,9.799-2.377,3.217-1.506,5.759-3.923,7.924-6.697s3.925-5.736,5.112-9.059c1.293-3.621,1.782-7.469,2.22-11.27.149-1.29-1.21-2.4-2.4-2.4-1.421,0-2.251,1.107-2.4,2.4-.397,3.438-.917,6.89-2.107,10.155-1.139,3.125-3.037,6.001-5.224,8.49-2.345,2.669-5.264,4.453-8.699,5.383-1.395.378-2.783.544-4.226.574-.77.016-1.551.028-2.32-.02-.211-.013-.706,0-.894-.078.279.115.219.395.264-.198.099-1.294-1.174-2.4-2.4-2.4-1.381,0-2.3,1.102-2.4,2.4h0Z"/><path class="f" d="M268.468,86.486c5.325-3.554,11.827-4.853,16.923-8.724,5.151-3.912,7.679-9.872,9.179-15.993.735-3-3.892-4.279-4.629-1.276-1.309,5.34-3.348,10.604-8.007,13.881-2.48,1.744-5.29,2.708-8.054,3.902-2.706,1.168-5.379,2.426-7.835,4.065-2.557,1.707-.157,5.866,2.423,4.145h0Z"/><path class="f" d="M61.688,139.669c13.746,12.132,34.063,16.363,51.737,12.086,5.259-1.273,10.339-3.377,14.934-6.237,2.617-1.629.21-5.783-2.423-4.145-14.635,9.109-34.005,9.337-49.497,2.176-4.095-1.893-7.97-4.286-11.357-7.275-2.308-2.037-5.716,1.345-3.394,3.394h0Z"/><path class="g" d="M53.622,37.967c4.118-13.001,12.504-21.51,20.031-26.741,8.385-5.827,18.734-9.132,30.786-8.745,11.488.369,20.528,3.891,28.233,9.291l6.483,5.316c8.029,7.736,15.125,19.625,15.299,36.83.059,5.802-.775,10.505-2.579,16.77-.548-.169-1.174-.289-1.887-.337-1.589-.107-3.463.331-4.886,1.613l-6.605-5.587c-2.011-5.576-6.757-11.819-11.768-16.419-2.924-2.684-4.967-3.893-7.662-5.169l-8.456-1.316c-5.803,2.229-14.04,7.036-18.653,9.408-1.1.566-2.342-.429-2.157-1.736.122-.861.153-1.773-.1-2.984-.262-1.254-1.201-1.812-1.958-1.446-6.455,3.125-15.777,11.443-21.086,16.989l-7.014,5.515c-1.337-1.37-3.18-1.928-4.772-1.923-.796.002-1.489.101-2.094.263-1.43-5.98-1.929-11.871-1.55-16.957.344-4.618,1.185-8.82,2.393-12.634Z"/><path class="f" d="M61.342,67.521c-2.835-2.712-7.125-3.372-10.681-1.717-2.547,1.186-4.059,3.596-4.813,6.224-1.762,6.139-.378,13.247,2.929,18.639,2.288,3.73,6.037,7.079,10.707,6.613,1.29-.129,2.4-1.011,2.4-2.4,0-1.198-1.102-2.529-2.4-2.4-3.645.364-5.991-2.885-7.43-5.818-1.171-2.386-1.982-5.092-2.116-7.751-.131-2.599.006-5.758,1.633-7.925-.34.453.25-.238.328-.312.314-.301-.121.034.303-.25.538-.36,1.087-.569,1.732-.67,1.473-.23,2.928.123,4.014,1.161,2.232,2.136,5.632-1.254,3.394-3.394h0Z"/><path class="f" d="M146.799,73.662c1.129-.949,2.728-1.111,4.115-.75.499.13,1.1.393,1.419.631.297.221.653.64.679.678,1.524,2.231,1.477,5.49,1.164,8.071-.329,2.719-1.354,5.35-2.7,7.699-1.396,2.437-3.996,5.812-7.222,5.279-1.277-.211-2.583.334-2.952,1.676-.315,1.148.39,2.74,1.676,2.952,7.881,1.302,12.677-6.263,14.969-12.699,1.909-5.361,2.197-13.897-2.941-17.616-3.491-2.527-8.404-2.003-11.601.684-.993.835-.861,2.533,0,3.394.983.983,2.399.837,3.394,0h0Z"/><path class="f" d="M141.666,93.726c-.426,1.776-1.012,3.511-1.67,5.215-.238.615-.485,1.225-.761,1.824-.115.248-.245.489-.358.738-.74,1.628.171-.293-.196.455-.879,1.792-1.867,3.509-2.959,5.18-3.172,4.854-7.026,9.516-11.668,13.049-2.649,2.017-5.554,3.606-8.823,4.254-1.272.252-2.002,1.768-1.676,2.952.365,1.327,1.677,1.929,2.952,1.676,6.573-1.303,12.17-5.937,16.584-10.755,3.655-3.989,7.1-8.528,9.486-13.409.095-.194.187-.389.275-.585.093-.208.46-1.006.315-.721-.181.354.062-.096.102-.178.1-.202.19-.409.282-.615.212-.477.414-.959.613-1.441.854-2.066,1.607-4.187,2.129-6.363.72-3.002-3.907-4.283-4.629-1.276h0Z"/><path class="f" d="M56.894,92.126c1.241,6.419,3.657,12.673,7.127,18.219,3.702,5.916,8.638,11.473,14.682,15.067,3.079,1.831,6.488,3.108,10.012,3.747,1.274.231,2.587-.348,2.952-1.676.32-1.164-.394-2.72-1.676-2.952-7.738-1.403-13.748-6.1-18.616-12.096-5.053-6.223-8.335-13.739-9.852-21.584-.246-1.273-1.772-2.001-2.952-1.676-1.331.366-1.923,1.675-1.676,2.952h0Z"/><path class="f" d="M133.883,9.7C119.012-.65,98.848-2.973,82.045,3.969c-13.815,5.708-24.937,17.282-30.047,31.329-3.755,10.326-4.084,21.451-1.714,32.123.669,3.014,5.298,1.739,4.629-1.276-3.51-15.812.012-32.741,10.973-44.911,4.379-4.863,9.315-8.707,15.201-11.605,7.708-3.795,16.37-5.173,24.904-4.678,9.231.535,17.895,3.62,25.471,8.893,1.064.741,2.666.195,3.284-.861.699-1.195.206-2.541-.861-3.284h0Z"/><path class="f" d="M154.391,70.618c1.205-4.319,2.123-8.712,2.383-13.198.256-4.429-.056-8.898-.765-13.274-1.159-7.154-3.789-14.12-7.862-20.129-2.005-2.957-4.32-5.701-6.885-8.187-2.219-2.151-5.617,1.24-3.394,3.394,4.284,4.151,7.745,9.009,10.156,14.475,2.998,6.798,4.161,14.385,4.023,21.778-.088,4.739-1.015,9.313-2.285,13.865-.831,2.98,3.798,4.252,4.629,1.276h0Z"/><path class="f" d="M117.856,46.861c4.219,2.012,7.6,4.915,10.719,8.375,3.102,3.441,5.994,7.4,7.608,11.779.448,1.216,1.627,2.04,2.952,1.676,1.17-.322,2.127-1.73,1.676-2.952-1.872-5.078-5.011-9.59-8.589-13.614-3.417-3.843-7.282-7.185-11.944-9.408-1.169-.558-2.591-.323-3.284.861-.612,1.047-.314,2.723.861,3.284h0Z"/><path class="f" d="M68.355,65.4c5.252-5.468,11.024-10.779,17.453-14.838.684-.432,1.379-.847,2.091-1.233.169-.092.38-.173.534-.282.333-.236.237.049.021-.089-.098-.063-1.607.559-1.045-.256-.083.12.048.397.06.536.076.864-.119,1.717-.042,2.572.104,1.153.692,2.202,1.635,2.875,1.949,1.391,3.799.442,5.648-.542,1.596-.85,3.182-1.719,4.774-2.577,3.834-2.068,7.697-4.198,11.764-5.779,1.207-.469,2.045-1.611,1.676-2.952-.317-1.153-1.738-2.149-2.952-1.676-3.803,1.479-7.441,3.345-11.039,5.26-1.743.928-3.475,1.874-5.213,2.812-.699.377-1.398.753-2.1,1.123-.554.292-.867.211-.121.448s.707.633.773-.315c.148-2.138-.337-4.741-2.377-5.854-1.929-1.052-3.86.195-5.518,1.178-3.471,2.056-6.677,4.584-9.759,7.175-3.371,2.835-6.606,5.844-9.658,9.021-2.14,2.228,1.249,5.627,3.394,3.394h0Z"/><path class="f" d="M64.434,139.595c2.147-.819,4.292-1.643,6.437-2.466,1.305-.5,2.719-.928,3.952-1.59,4.514-2.425,5.254-8.201,5.815-12.77.154-1.251-1.214-2.453-2.4-2.4-1.432.064-2.235,1.06-2.4,2.4-.038.305-.045.363-.02.174-.025.178-.052.356-.08.534-.042.266-.086.531-.133.796-.111.626-.236,1.25-.37,1.872-.194.904-.397,1.808-.71,2.68-.043.119-.087.237-.134.355.122-.282.129-.3.019-.054-.085.167-.163.336-.253.501-.105.191-.226.371-.339.557-.308.508.184-.142-.135.183-.133.135-.255.28-.393.411-.093.089-.189.175-.287.257.231-.171.236-.176.014-.016-.174.109-.343.224-.523.325-.08.045-.693.324-.5.251.196-.074-.093.026-.139.043-.21.074-.418.158-.627.237-.697.266-1.394.533-2.09.8-1.993.764-3.985,1.529-5.979,2.29-1.169.446-2.102,1.637-1.676,2.952.369,1.14,1.696,2.155,2.952,1.676h0Z"/><path class="f" d="M60.428,135.658c-7.722,2.362-15.28,5.325-22.58,8.777-6.778,3.205-13.552,6.857-19.272,11.758-5.979,5.123-9.898,12.408-12.483,19.744-2.929,8.309-4.184,17.135-5.125,25.86-1.05,9.739-1.419,19.609-.227,29.354,1.026,8.387,2.823,17.426,7.722,24.504,2.242,3.239,5.143,6.094,8.717,7.829,3.954,1.919,8.417,2.583,12.775,2.091,9.029-1.019,16.574-6.115,22.78-12.504,5.661-5.828,10.827-12.383,15.198-19.233,3.891-6.098,6.979-12.637,9.829-19.273.876-2.039,1.733-4.085,2.585-6.134.498-1.197-.538-2.639-1.676-2.952-1.381-.38-2.453.474-2.952,1.676-2.755,6.629-5.579,13.256-9.096,19.525-3.469,6.185-7.651,11.9-12.213,17.32-5.141,6.11-10.974,12.471-18.653,15.313-7.176,2.656-15.411,2.229-20.987-3.471-5.305-5.421-7.33-13.414-8.617-20.654-1.621-9.124-1.622-18.493-.914-27.709.644-8.383,1.68-16.858,3.857-24.995,1.975-7.382,5.093-14.826,10.353-20.498,4.408-4.753,10.373-8.087,16.062-11.048,6.808-3.544,13.914-6.522,21.17-9.021,1.664-.573,3.338-1.116,5.021-1.631,2.945-.901,1.69-5.536-1.276-4.629h0Z"/><path class="f" d="M196.675,177.588c.307,1.171.602,2.361.778,3.56l-.086-.638c.021.164.03.326.013.491l.086-.638c-.012.076-.028.148-.054.221l.242-.573c-.023.052-.047.095-.078.142l.375-.486c-.037.044-.071.079-.116.115l.486-.375c-.09.058-.185.104-.282.149l.573-.242c-.155.065-.309.112-.475.139l.638-.086c-.15.018-.296.017-.446,0l.638.086c-.168-.023-.333-.064-.502-.087-.319-.1-.638-.114-.957-.043-.319.014-.617.109-.892.285-.498.291-.973.862-1.103,1.434-.14.614-.11,1.304.242,1.849.312.484.835,1.022,1.434,1.103.434.058.855.167,1.297.187.704.031,1.349-.19,1.976-.479.786-.363,1.404-1.102,1.613-1.947.178-.721.105-1.31-.017-2.033-.194-1.147-.459-2.283-.754-3.408-.152-.579-.588-1.133-1.103-1.434s-1.273-.429-1.849-.242c-.581.188-1.141.548-1.434,1.103-.304.576-.41,1.209-.242,1.849h0Z"/><path class="f" d="M178.619,168.079c-.581,1.889-.202,6.233,3.375,6.603,4.729-.028,4.981-5.281,3.389-7.75-1.303-2.022-5.136-2.863-6.764,1.148Z"/><path class="f" d="M216.332,168.079c.581,1.889.203,6.233-3.375,6.603-4.729-.028-4.981-5.281-3.389-7.751,1.303-2.022,5.136-2.863,6.764,1.148Z"/><path class="f" d="M301.111,104.87c.346,1.339.677,2.7.873,4.07l-.086-.638c.023.188.033.373.013.561l.086-.638c-.014.087-.033.169-.063.252l.242-.573c-.026.059-.054.109-.09.162l.375-.486c-.042.051-.082.089-.133.13l.486-.375c-.103.066-.212.119-.323.169l.573-.242c-.178.073-.354.127-.544.156l.638-.086c-.171.02-.338.018-.51-.003l.638.086c-.192-.028-.38-.075-.573-.102-.319-.1-.638-.114-.957-.043-.319.014-.617.109-.892.285-.498.291-.973.862-1.103,1.434-.14.614-.11,1.304.242,1.849.313.485.834,1.02,1.434,1.103.465.065.916.181,1.39.204.741.035,1.425-.195,2.085-.498.825-.378,1.465-1.133,1.687-2.018.189-.751.108-1.388-.016-2.141-.216-1.311-.514-2.611-.846-3.897-.149-.579-.59-1.134-1.103-1.434s-1.273-.429-1.849-.242c-1.254.406-2.013,1.649-1.676,2.952h0Z"/><path class="f" d="M279.954,93.178c-.688,2.204-.265,7.283,3.915,7.731,5.526-.012,5.844-6.148,3.995-9.042-1.514-2.369-5.989-3.369-7.91,1.31Z"/><path class="f" d="M324.207,93.351c.671,2.21.208,7.285-3.974,7.7-5.526-.055-5.796-6.194-3.925-9.073,1.532-2.357,6.015-3.322,7.899,1.372Z"/><path class="f" d="M102.252,84.738c.287,1.256.552,2.527.728,3.804l-.086-.638c.042.319.083.637.13.955l-.086-.638c.032.244.048.486.015.731l.086-.638c-.017.091-.039.175-.073.261l.242-.573c-.029.061-.059.112-.098.166l.375-.486c-.027.034-.057.065-.09.092l.486-.375c-.12.09-.257.149-.394.207l.573-.242c-.163.062-.325.109-.496.137l.638-.086c-.183.023-.362.023-.545,0l.638.086c-.22-.033-.435-.095-.654-.132-.654-.11-1.257-.105-1.849.242-.498.291-.973.862-1.103,1.434-.14.614-.11,1.304.242,1.849.319.494.829,1.002,1.434,1.103.478.08.926.194,1.418.231.778.059,1.527-.195,2.218-.518.828-.386,1.437-1.169,1.654-2.053.187-.764.098-1.451-.024-2.216l.086.638c-.19-1.553-.488-3.093-.836-4.618-.28-1.225-1.757-2.063-2.952-1.676-1.283.415-1.976,1.64-1.676,2.952h0Z"/><path class="f" d="M80.436,71.891c-.781,2.277-.49,7.581,3.851,8.171,5.759.151,6.27-6.235,4.429-9.304-1.508-2.513-6.141-3.687-8.28,1.133Z"/><path class="f" d="M126.541,73.373c.634,2.322.003,7.597-4.368,7.907-5.756-.22-5.857-6.624-3.823-9.569,1.666-2.411,6.365-3.285,8.19,1.662Z"/><path class="f" d="M346.278,93.387c.96-.854,2.257-1.117,3.511-.931.649.097,1.261.315,1.796.697-.14-.1.822.868.504.453,1.597,2.082,1.576,5.255,1.369,7.734-.214,2.549-1.124,5.106-2.328,7.353-1.223,2.284-3.612,5.704-6.643,5.291-1.283-.175-2.577.309-2.952,1.676-.308,1.119.384,2.776,1.676,2.952,7.649,1.042,12.133-6.234,14.179-12.576,1.022-3.168,1.164-6.659.661-9.933-.424-2.754-1.581-5.4-3.933-7.017-3.426-2.356-8.207-1.787-11.234.906-2.312,2.058,1.092,5.443,3.394,3.394h0Z"/><path class="f" d="M296.621,125.438c.3-.16.603-.312.91-.459.52-.249-.498.176.1-.04.223-.08.444-.161.67-.231.612-.19,1.236-.321,1.867-.428.462-.078-.232.011.081-.01.184-.012.368-.038.552-.052.445-.035.891-.053,1.338-.057.416-.004.832.004,1.248.026.192.01.383.023.574.04.064.006.787.098.211.012.625.092,1.244.221,1.847.408.246.076.512.226.763.27-.071-.013-.495-.234-.213-.086.106.056.217.103.323.158.156.081.309.168.459.261.199.124.751.544,0-.036.991.766,2.441,1.038,3.394,0,.787-.858,1.061-2.574,0-3.394-2.394-1.85-5.358-2.452-8.348-2.46-2.893-.007-5.646.572-8.199,1.932-1.109.591-1.544,2.224-.861,3.284.727,1.128,2.097,1.494,3.284.861h0Z"/><path class="e" d="M64.905,148.371c.612-2.083,1.279-4.181,2.043-6.294,1.824-5.048,3.724-9.046,6.528-12.058,2.375-2.551,8.094-5.248,11.406-6.206,4.185-1.21,7.78-2.188,11.938-1.108,3.632.943,4.489,4.897,5.974,9.329l.706,2.609c1.415.677,2.821,2.065,2.491,4.866-.29,2.458-1.854,4.206-5.566,4.269.996.431,1.788.778,1.788.778,1.881.824,3.384,2.545,2.71,5.287-.558,2.27-3.051,3.106-4.674,3.035l-.621-.027c.437.418.873.836.873.836.902.863,1.061,2.572,1.073,3.292.029,1.766-2.025,3.765-3.497,4.111-1.805.424-3.937.801-6.825,1.379-.809,3.062-1.318,4.944-2.199,6.651-1.875,3.633-4.041,5.54-7.335,6.753,0,0-2.157,3.534-4.231,6.939-5.882-3.067-14.459-7.96-19.363-11.296l.646-1.56c2.505-7.004,3.967-14.201,6.135-21.583Z"/><path class="f" d="M61.084,170.592c3.739-10.549,5.213-21.901,9.872-32.128.902-1.98,1.938-3.961,3.289-5.676,1.277-1.62,2.845-2.748,4.627-3.762,3.89-2.212,8.579-4.004,13.067-4.339,2.003-.149,4.671-.113,5.88,1.397,1.45,1.811,1.945,4.44,2.659,6.588.97,2.917,5.607,1.667,4.629-1.276-1.535-4.619-2.868-10.021-8.338-11.164-5.613-1.173-11.642.623-16.776,2.878-2.239.983-4.425,2.144-6.377,3.626-1.973,1.499-3.512,3.419-4.813,5.521-3.105,5.019-4.916,10.918-6.526,16.554-1.952,6.834-3.446,13.799-5.823,20.506-.433,1.222.491,2.626,1.676,2.952,1.327.365,2.518-.45,2.952-1.676h0Z"/><path class="f" d="M86.053,134.942c2.88.241,5.762.467,8.64.735,1.493.139,2.985.287,4.473.462,1.046.123,1.449.104,2.527.387.199.052.391.131.589.183.375.098-.384-.226.123.059.181.102.357.213.538.314.049.027.277.219.052.032-.267-.223.125.149.178.186.294.208-.109-.217.167.211.277.432.061-.079.158.296.039.15.085.296.119.448-.011-.049-.029-.326.002-.021.043.42.022.856-.028,1.274.058-.481-.02.006-.075.211s-.251.639-.036.206c-.094.19-.199.367-.305.55-.132.226.093-.106.109-.125-.101.114-.208.219-.311.331-.054.059-.364.295-.114.111.241-.178-.031.015-.07.032-.079.035-.649.327-.442.244.19-.076-.437.126-.561.156-.157.039-.317.073-.476.1.328-.056-.17.017-.278.025-1.813.132-3.67-.157-5.476-.308-1.982-.166-3.964-.335-5.945-.505-1.293-.111-2.4,1.182-2.4,2.4,0,1.39,1.103,2.289,2.4,2.4,1.982.17,3.963.339,5.945.505,1.893.159,3.849.471,5.748.285,3.132-.306,5.902-1.867,6.816-5.041.898-3.118-.098-6.504-2.906-8.246-2.224-1.38-5.102-1.409-7.62-1.676-3.84-.408-7.692-.7-11.54-1.022-1.293-.108-2.4,1.181-2.4,2.4,0,1.388,1.103,2.291,2.4,2.4h0Z"/><path class="f" d="M101.001,146.628c.22.1.437.206.645.328.131.077.695.553.25.142.176.163.341.33.51.5-.416-.419.045.112.136.25.251.38-.06-.387.044.105.034.159.09.889.09.324,0,.096-.039.955.027.453-.039.292-.117.582-.215.859.189-.538-.108.078-.154.188-.1.144-.069.103.091-.122-.081.091-.167.177-.256.26-.202.173-.181.161.062-.035-.098.069-.2.134-.303.195-.142.084-.827.327-.233.14-.223.07-.439.148-.667.202-.576.136-.019-.003-.018.029.001.052-.904.022-1.022.016-3.378-.173-6.778-.462-10.135-.879-1.251-.155-2.453,1.215-2.4,2.4.064,1.433,1.06,2.234,2.4,2.4,3.157.391,6.343.634,9.516.841,1.69.11,3.312-.097,4.826-.916,2.15-1.163,3.382-3.503,3.286-5.929-.103-2.602-1.701-4.827-4.058-5.898-1.14-.519-2.636-.364-3.284.861-.556,1.053-.359,2.729.861,3.284h0Z"/><path class="f" d="M88.936,161.829c-.4,1.515-.785,3.04-1.3,4.521-.094.269-.197.535-.297.801-.202.538.226-.481-.012.031-.057.122-.111.244-.169.365-.317.661-.678,1.304-1.071,1.923-.193.304-.399.599-.609.892-.265.37.16-.177-.028.035-.101.115-.195.236-.296.352-.43.492-.902.93-1.397,1.355-.338.291.251-.155.005-.004-.123.075-.236.169-.355.249-.291.195-.591.377-.897.546-.262.144-.528.279-.799.405-.09.042-.661.264-.102.052-.177.067-.352.139-.529.205-1.172.439-2.1,1.642-1.676,2.952.371,1.147,1.694,2.148,2.952,1.676,3.195-1.197,5.749-3.108,7.657-5.957,1.854-2.768,2.711-5.941,3.552-9.123.32-1.212-.404-2.662-1.676-2.952-1.258-.286-2.609.378-2.952,1.676h0Z"/><path class="f" d="M98.803,155.382c.062.06.121.123.176.19-.236-.317-.286-.371-.148-.163.051.108.113.268.186.356-.141-.346-.18-.433-.116-.259.023.064.045.128.065.193.047.149.086.3.12.453.032.143.04.303.084.441-.056-.178-.068-.605-.028-.173.021.228.017.456.03.684.024.418.157-.558.013-.127-.023.07-.122.314-.118.384.159-.36.184-.424.076-.193-.031.063-.065.126-.1.187-.083.147-.178.284-.269.427-.242.379.351-.375.014-.024-.102.106-.197.219-.301.323-.074.074-.413.301-.43.392l.262-.198c-.074.056-.15.11-.227.162-.111.075-.225.147-.342.214-.078.044-.594.296-.165.099.408-.187-.048-.002-.148.024-.126.033-.255.059-.383.088-.595.135-1.192.258-1.79.379-1.549.311-3.103.603-4.653.912-1.233.246-2.056,1.78-1.676,2.952.424,1.31,1.631,1.94,2.952,1.676,1.742-.348,3.489-.67,5.229-1.029.637-.132,1.306-.232,1.92-.448.96-.339,1.758-.862,2.524-1.529,1.378-1.2,2.44-3.011,2.41-4.875-.028-1.752-.519-3.634-1.774-4.911-.882-.897-2.522-.95-3.394,0-.886.965-.941,2.437,0,3.394h0Z"/><path class="e" d="M311.408,205.837c1.078,4.224,2.049,7.933,3.19,11.843,6.713-2.831,14.821-6.314,21.405-9.159-2.759-5.311-5.409-10.667-8.084-16.076-1.38-4.232-4.51-13.647-5.542-17.774-1.786-7.131-3.374-12.499-3.699-14.331-1.217-5.612-3.073-16.905-3.826-21.948-.522-3.478-2.226-5.461-5.333-5.078-2.945.371-4.336,4.267-4.209,6.644.371,6.957.487,10.319,1.565,17.438,0,0,.154,1.19.333,2.583-2.29-.821-6.915-2.513-8.921-3.043-1.396-.369-3.857.307-4.686,2.358-.819,2.025.019,4.373,2.399,5.44,0,0,.312.14.624.28l-.404-.092c-2.748-.625-5.149-.496-5.982,2.348-.77,2.63.376,4.306,2.983,5.576,0,0,.692.337,1.384.674l-.721-.006c-2.271-.02-4.331,1.499-4.742,3.351-.366,1.65.263,3.352,1.46,4.545,1.607,1.601,4.189,3.893,5.86,5.218l1.483,1.993c1.299,5.728,3.849,10.76,8.58,14.261,1.206.893,3.374,2.052,4.881,2.957Z"/><path class="f" d="M311.328,158.737c-3.939-1.399-7.901-2.811-11.915-3.979-2.78-.809-5.898.173-7.517,2.642-1.982,3.022-.834,6.945,2.022,8.914,1.467,1.011,3.347,1.607,4.97,2.331,1.603.715,3.21,1.424,4.836,2.087,1.201.49,2.638-.532,2.952-1.676.378-1.374-.471-2.461-1.676-2.952-.091-.037-.811-.337-.371-.151-.252-.106-.503-.215-.754-.323-.643-.278-1.284-.56-1.924-.845-1.336-.593-2.669-1.194-4.003-1.793-.546-.245-1.119-.467-1.607-.822.283.206-.016-.023-.057-.069-.102-.112-.212-.21-.31-.327.265.317-.153-.29-.215-.419.205.427-.055-.289-.082-.42.096.468.029-.114.025-.295-.007-.36-.098.364-.005.012.027-.101.057-.208.076-.311.071-.382.051-.172-.009-.043-.005.01.312-.544.155-.316s.108-.115.153-.165c.069-.078.151-.147.228-.216-.335.3.222-.109.368-.193.116-.067.398-.118-.02.006.094-.028.185-.067.281-.088.121-.026.26-.046.375-.089.255-.096-.432-.011.003.007.14.006.708.074.354-.008-.405-.094.138.056.214.077.321.088.638.187.956.284,1.876.578,3.736,1.206,5.596,1.834,1.879.634,3.757,1.273,5.626,1.936,1.222.434,2.627-.491,2.952-1.676.365-1.328-.45-2.517-1.676-2.952h0Z"/><path class="f" d="M296.858,162.607c-1.853-.412-3.83-.639-5.625.119-1.927.813-3.15,2.64-3.486,4.681-.345,2.1.121,4.076,1.61,5.644,1.357,1.429,3.277,2.179,5.018,3.011,1.73.826,3.48,1.604,5.243,2.358,1.151.492,2.627.382,3.284-.861.545-1.031.371-2.756-.861-3.284-1.349-.577-2.693-1.163-4.023-1.782-1.449-.674-2.96-1.31-4.337-2.122-.16-.094-.317-.194-.47-.299-.057-.039-.124-.106-.188-.132.007.003.363.321.194.148-.115-.118-.252-.216-.369-.333-.078-.078-.409-.485-.171-.16.252.343-.059-.1-.109-.184-.06-.102-.102-.249-.177-.338.034.04.187.571.104.219-.015-.062-.038-.122-.054-.183-.017-.062-.028-.126-.045-.187-.091-.317.043.174.026.25.031-.139-.021-.329-.018-.476.002-.101.058-.582-.003-.184-.066.428.044-.188.068-.287.045-.188.098-.373.161-.556.192-.559-.175.262.031-.067.037-.06.225-.303.218-.364.005.044-.4.44-.13.169.046-.046.087-.095.133-.14.045-.045.094-.086.138-.131.23-.231-.124.139-.191.147.073-.009.366-.187.429-.241-.018.016-.491.147-.286.126.093-.01.211-.069.301-.092.108-.028.623-.112.19-.054-.436.059.156-.001.287-.004.311-.007.8.139,1.083.058.005-.001-.524-.083-.26-.034.102.019.205.033.307.051.236.042.471.092.705.144,1.223.272,2.655-.369,2.952-1.676.277-1.216-.366-2.661-1.676-2.952h0Z"/><path class="f" d="M293.885,171.113c-2.113.023-4.311.885-5.685,2.537-1.477,1.776-1.982,4.184-1.193,6.393.718,2.011,2.177,3.378,3.71,4.786,1.313,1.206,2.655,2.384,4.049,3.495.98.781,2.45,1.029,3.394,0,.798-.869,1.049-2.559,0-3.394-1.121-.892-2.205-1.831-3.27-2.788-.562-.505-1.119-1.015-1.667-1.535-.269-.255-.538-.512-.801-.774-.114-.113-.217-.25-.339-.352-.111-.129-.096-.103.043.08-.063-.084-.122-.17-.178-.258-.095-.146-.177-.298-.265-.448-.301-.517.085.386-.082-.186-.047-.161-.076-.341-.136-.495-.035-.177-.035-.133.001.132-.012-.102-.019-.205-.022-.307-.007-.172.011-.344.007-.516.01.471.002.016.046-.145l.049-.161c.091-.247.075-.212-.048.105-.028-.073.191-.305.214-.372.083-.235-.296.306-.005-.003.124-.132.249-.255.378-.382.338-.333-.361.183.094-.073.136-.076.264-.165.401-.239.23-.124.329-.142.029-.036.183-.064.362-.129.549-.178.111-.029.714-.108.13-.057.199-.017.396-.028.595-.03,1.255-.014,2.458-1.094,2.4-2.4-.058-1.288-1.055-2.415-2.4-2.4h0Z"/><path class="f" d="M309.189,156.757c-.568-3.78-.958-7.57-1.186-11.386-.116-1.95-.358-3.957-.299-5.909.029-.967.445-2.378,1.181-3.198.308-.343.602-.528.971-.586.662-.104.988-.01,1.365.23.083.053.232.158.42.389-.06-.074.27.45.329.577.329.705.462,1.503.584,2.267.492,3.07.962,6.143,1.478,9.21.999,5.928,2.031,11.834,3.589,17.642,1.847,6.888,3.646,13.741,5.841,20.528.555,1.717,1.117,3.432,1.679,5.147.674,2.058,1.672,3.948,2.639,5.882,1.924,3.846,3.917,7.655,5.934,11.454,1.449,2.729,5.594.307,4.145-2.423-1.927-3.629-3.835-7.268-5.678-10.942-.843-1.681-1.784-3.331-2.37-5.12-.521-1.592-1.043-3.184-1.56-4.777-2.353-7.259-4.287-14.592-6.253-21.963-1.693-6.347-2.713-12.865-3.777-19.342-.272-1.655-.538-3.312-.795-4.969-.261-1.685-.48-3.332-1.245-4.884-1.677-3.401-6.186-4.897-9.456-2.739-1.753,1.157-2.881,3.065-3.435,5.06-.613,2.205-.309,4.484-.187,6.733.263,4.829.737,9.612,1.456,14.395.193,1.283,1.81,1.99,2.952,1.676,1.373-.377,1.87-1.665,1.676-2.952h0Z"/><path class="f" d="M295.633,189.257c.924,3.98,2.471,7.839,4.971,11.097,2.611,3.402,5.969,5.402,9.593,7.556l-1.103-1.434c.927,3.597,2.16,7.094,3.219,10.652.879,2.954,5.513,1.696,4.629-1.276-.803-2.699-1.738-5.357-2.518-8.063-.225-.78-.4-1.578-.641-2.353-.322-1.038-.892-1.516-1.798-2.045-1.244-.726-2.519-1.41-3.717-2.212-4.482-3-6.825-8.108-8.007-13.197-.699-3.008-5.328-1.735-4.629,1.276h0Z"/><path class="f" d="M205.203,191.662c-1.898-1.858-4.843-2.449-7.402-2.447s-5.504.588-7.404,2.447c-.899.88-.948,2.524,0,3.394.967.887,2.435.939,3.394,0,.092-.09.456-.382.063-.079-.406.314.067-.035.184-.107.148-.091.3-.175.455-.253.101-.051.22-.091.317-.149-.134.079-.538.205-.161.075.498-.172.998-.318,1.517-.415.127-.024.674-.177.054-.021.148-.037.315-.035.466-.048.37-.031.742-.045,1.114-.046.34,0,.681.012,1.02.038.046.004.531.082.562.055-.086.075-.507-.08-.029.006.522.094,1.038.225,1.537.407.196.071.499.279-.099-.052.085.047.178.081.266.124.172.085.342.177.505.278.125.077.24.173.365.247-.685-.407-.319-.257-.119-.062.898.879,2.511.962,3.394,0,.872-.95.959-2.456,0-3.394h0Z"/><path class="f" d="M96.906,106.243c.308-.175.617-.348.935-.505.09-.044.182-.086.272-.13.351-.171-.034-.022-.152.058.207-.14.532-.207.767-.286.606-.203,1.228-.359,1.856-.475.211-.039.423-.074.635-.105-.363.053-.006.005.166-.012.468-.047.937-.077,1.407-.092.856-.028,1.694.035,2.546.087.312.019-.382-.07.079.01.189.033.377.064.564.103.283.058.564.126.842.206.267.076.528.168.789.262.482.173-.145-.057-.141-.064.003-.006.312.147.328.156.313.158.613.339.897.545,1.018.742,2.72.206,3.284-.861.659-1.247.226-2.492-.861-3.284-2.313-1.686-5.56-2.046-8.327-1.959-2.944.092-5.746.741-8.31,2.202-1.091.622-1.558,2.202-.861,3.284.711,1.102,2.116,1.526,3.284.861h0Z"/><path class="f" d="M352.12,223.259c-1.973-4.718-3.951-9.434-5.879-14.171-.982-2.412-2.03-6.314-5.525-5.198-1.873.598-3.703,1.598-5.508,2.378-7.969,3.444-15.942,6.88-23.95,10.233-1.634.684-3.27,1.365-4.91,2.035-1.068.436-2.139.793-2.788,1.826-.732,1.165-.474,2.401-.186,3.654,1.077,4.697,2.223,9.379,3.539,14.016,2.95,10.391,6.429,21.207,13.164,29.816,3.164,4.045,7.045,7.358,11.846,9.281s10.079,1.816,14.976.302c4.926-1.522,9.412-4.272,13.093-7.873,3.551-3.474,6.194-7.691,8.557-12.027,10.339-18.974,15.418-40.475,14.578-62.073-.18-4.621-1.006-8.867-2.851-13.118-1.579-3.636-3.829-6.963-6.534-9.857-5.704-6.101-13.385-10.091-21.321-12.444-2.128-.631-4.289-1.138-6.468-1.554-1.272-.243-2.589.356-2.952,1.676-.322,1.173.397,2.708,1.676,2.952,13.313,2.539,27.137,9.458,31.97,23.003.568,1.59,1.01,3.225,1.332,4.883.406,2.095.363,4.317.411,6.447.105,4.675-.057,9.355-.5,14.01-.865,9.089-2.888,18.068-5.912,26.68-1.537,4.379-3.346,8.652-5.408,12.81-1.977,3.986-4.081,8.018-6.762,11.584-4.882,6.491-12.856,11.675-21.236,11.247-8.749-.447-15.019-8.11-18.88-15.215-4.417-8.13-7.038-17.375-9.367-26.285-.528-2.021-1.03-4.049-1.514-6.082-.208-.873-.412-1.747-.614-2.622-.08-.346-.116-1.029-.305-1.327-.496-.786-.547,1.583-.945,1.193.019.019.645-.263.68-.277,3.072-1.255,6.131-2.544,9.187-3.836,7.106-3.004,14.194-6.052,21.275-9.114.779-.337,1.557-.673,2.335-1.011.366-.158.732-.317,1.097-.475.132-.057.269-.109.398-.172.731-.359.165.201-.25.028l-1.059-.617c-.032-.187-.008-.152.075.106.087.215.174.431.261.646.14.346.281.692.421,1.038.292.719.585,1.437.879,2.156.546,1.334,1.095,2.667,1.648,3.999,1.193,2.877,2.397,5.748,3.599,8.621.5,1.195,1.589,2.051,2.952,1.676,1.128-.31,2.179-1.749,1.676-2.952h0Z"/><path class="f" d="M54.05,171.485c3.914,3.108,8.316,5.624,12.636,8.115,4.381,2.527,8.813,5.024,13.389,7.183,1.172.553,2.589.326,3.284-.861.61-1.043.316-2.728-.861-3.284-4.474-2.111-8.809-4.548-13.095-7.014-2.354-1.354-4.691-2.738-6.991-4.182-1.016-.638-2.025-1.287-3.018-1.961-.391-.265-.779-.534-1.163-.809-.173-.124-.344-.251-.517-.376-.534-.389.003.011-.27-.205-1.014-.805-2.404-.99-3.394,0-.836.836-1.021,2.584,0,3.394h0Z"/></g></g></svg>